<?xml version="1.0" encoding="UTF-8" standalone="no"?>
<!-- Created with Inkscape (http://www.inkscape.org/) -->

<svg
   xmlns:dc="http://purl.org/dc/elements/1.1/"
   xmlns:cc="http://creativecommons.org/ns#"
   xmlns:rdf="http://www.w3.org/1999/02/22-rdf-syntax-ns#"
   xmlns:svg="http://www.w3.org/2000/svg"
   xmlns="http://www.w3.org/2000/svg"
   xmlns:sodipodi="http://sodipodi.sourceforge.net/DTD/sodipodi-0.dtd"
   xmlns:inkscape="http://www.inkscape.org/namespaces/inkscape"
   width="172.92876"
   height="196.532"
   id="svg3087"
   version="1.1"
   inkscape:version="0.48.4 r9939"
   sodipodi:docname="New document 2">
  <defs
     id="defs3089" />
  <sodipodi:namedview
     id="base"
     pagecolor="#ffffff"
     bordercolor="#666666"
     borderopacity="1.0"
     inkscape:pageopacity="0.0"
     inkscape:pageshadow="2"
     inkscape:zoom="2.7781736"
     inkscape:cx="86.464378"
     inkscape:cy="98.265999"
     inkscape:document-units="px"
     inkscape:current-layer="layer1"
     showgrid="true"
     fit-margin-top="10"
     fit-margin-left="10"
     fit-margin-right="10"
     fit-margin-bottom="10"
     showborder="true"
     borderlayer="false"
     inkscape:window-width="1138"
     inkscape:window-height="781"
     inkscape:window-x="1447"
     inkscape:window-y="147"
     inkscape:window-maximized="0">
    <inkscape:grid
       type="xygrid"
       id="grid3128"
       empspacing="5"
       visible="true"
       enabled="true"
       snapvisiblegridlinesonly="true"
       originx="-213.53563px"
       originy="-421.734px" />
  </sodipodi:namedview>
  <metadata
     id="metadata3092">
    <rdf:RDF>
      <cc:Work
         rdf:about="">
        <dc:format>image/svg+xml</dc:format>
        <dc:type
           rdf:resource="http://purl.org/dc/dcmitype/StillImage" />
        <dc:title></dc:title>
      </cc:Work>
    </rdf:RDF>
  </metadata>
  <g
     inkscape:label="Layer 1"
     inkscape:groupmode="layer"
     id="layer1"
     transform="translate(-213.53563,-434.09618)">
    <g
       id="g100"
       transform="matrix(1.25,0,0,-1.25,299.98688,477.30493)">
      <path
         inkscape:connector-curvature="0"
         d="m 0,0 c -21.636,0.035 -39.169,3.794 -39.162,8.398 0.007,4.605 17.554,8.308 39.189,8.272 C 21.663,16.636 39.196,12.877 39.189,8.272 39.182,3.667 21.636,-0.034 0,0 m 0.011,-60.96 c -10.74,0 -19.446,8.707 -19.446,19.445 0,10.741 8.706,19.446 19.446,19.446 10.739,0 19.445,-8.705 19.445,-19.446 0,-10.738 -8.706,-19.445 -19.445,-19.445 m 0,87.527 0,-0.002 -10e-4,0.002 c -33.674,0 -61.171,-9.053 -61.171,-20.294 0,-2.961 7.344,-45.415 10.257,-62.251 1.306,-7.55 20.818,-18.621 50.899,-18.621 l 0.031,0.09 0,-0.09 c 30.081,0 49.594,11.071 50.9,18.621 2.913,16.836 10.256,59.29 10.256,62.251 0,11.241 -27.496,20.294 -61.171,20.294"
         style="fill:#003366;fill-opacity:1;fill-rule:nonzero;stroke:none"
         id="path102" />
    </g>
    <g
       id="g104"
       transform="matrix(1.25,0,0,-1.25,354.95763,568.36943)">
      <path
         inkscape:connector-curvature="0"
         d="m 0,0 c -0.93,0 -1.675,-0.658 -1.675,-0.658 0,0 -15.064,-11.929 -42.291,-11.93 -27.226,10e-4 -42.29,11.93 -42.29,11.93 0,0 -0.746,0.658 -1.676,0.658 -1.11,0 -2.164,-0.746 -2.164,-2.393 0,-0.173 0.017,-0.347 0.049,-0.517 2.338,-12.514 4.046,-21.393 4.346,-22.744 2.041,-9.205 20.048,-16.152 41.734,-16.153 l 10e-4,0 0.002,0 c 21.685,0.001 39.692,6.948 41.733,16.153 0.3,1.351 2.008,10.23 4.346,22.744 0.032,0.17 0.049,0.344 0.049,0.517 C 2.164,-0.746 1.111,0 0,0"
         style="fill:#003366;fill-opacity:1;fill-rule:nonzero;stroke:none"
         id="path106" />
    </g>
    <g
       id="g108"
       transform="matrix(1.25,0,0,-1.25,312.15801,529.19093)">
      <path
         inkscape:connector-curvature="0"
         d="m 0,0 c 0,-5.383 -4.363,-9.745 -9.745,-9.745 -5.382,0 -9.745,4.362 -9.745,9.745 0,5.383 4.363,9.745 9.745,9.745 C -4.363,9.745 0,5.383 0,0"
         style="fill:#003366;fill-opacity:1;fill-rule:nonzero;stroke:none"
         id="path110" />
    </g>
  </g>
</svg>
