<?xml version="1.0" encoding="utf-8"?>
<!-- Generator: Adobe Illustrator 23.0.1, SVG Export Plug-In . SVG Version: 6.00 Build 0)  -->
<svg version="1.1" xmlns="http://www.w3.org/2000/svg" xmlns:xlink="http://www.w3.org/1999/xlink" x="0px" y="0px"
	 viewBox="0 0 280 58" style="enable-background:new 0 0 280 58;" xml:space="preserve">
<style type="text/css">
	.st0{fill:#666666;}
	.st1{fill:#4353A1;}
	.st2{fill:#77CCFF;}
	.st3{fill:#22AAEE;}
</style>
<g id="レイヤー_1">
</g>
<g id="レイヤー_2">
	<g>
		<g>
			<g>
				<path class="st0" d="M125.2,6.5c-0.7-1.7-2-2.8-4.1-2.8c-2.8,0-3.9,1.3-3.9,3.1c0,4.3,10.7,3.5,10.7,10.9c0,4.1-3.9,7.1-9.4,7.1
					c-1.9,0-4-0.4-5.7-1.4c0.4-1.3,0.8-2.7,1-4.1h0.7c0.5,2.2,2.4,3.5,4.9,3.5c2.2,0,4.1-1.1,4.1-3.3c0-5.1-10.5-3.3-10.5-11
					c0-3.7,2.8-6.7,8.2-6.7c2.5,0,4.8,0.9,5.6,1.5c-0.4,1-0.8,2.1-1.1,3.2H125.2z"/>
				<path class="st0" d="M135.6,2.3c0.9,0.1,1.8,0.2,2.6,0.2c0.9,0,1.8-0.1,2.6-0.2V11c1.8,0.1,3.6,0.2,5.4,0.2
					c1.8,0,3.6-0.1,5.4-0.2V2.3c0.9,0.1,1.8,0.2,2.6,0.2c0.9,0,1.8-0.1,2.6-0.2v22c-0.9-0.1-1.8-0.2-2.6-0.2c-0.9,0-1.8,0.1-2.6,0.2
					V13.6c-1.8-0.1-3.6-0.2-5.4-0.2c-1.8,0-3.6,0.1-5.4,0.2v10.8c-0.9-0.1-1.8-0.2-2.6-0.2c-0.9,0-1.8,0.1-2.6,0.2V2.3z"/>
				<path class="st0" d="M177.6,24.8c-7.8,0-13.1-4.2-13.1-11.5c0-6.4,5.1-11.6,13.9-11.6c10.1,0,13,6.5,13.1,11.4
					C191.5,19.5,186.2,24.8,177.6,24.8z M170.4,14.3c0,4.2,2.1,8.6,7.4,8.6c5.4,0,7.9-4.9,7.9-10.3c0-4.1-2.1-8.9-7.4-8.9
					C173.3,3.7,170.4,7.1,170.4,14.3z"/>
				<path class="st0" d="M199.1,2.3h3.5c5,5,10.3,9.9,15.3,15v-15c0.5,0.1,1,0.1,1.4,0.1c0.5,0,1,0,1.4-0.1v22l-3,0
					c-4.1-4.1-7.9-8.1-11.9-11.9l-3.8-3.7v15.5c-0.5,0-1-0.1-1.4-0.1c-0.5,0-1,0.1-1.4,0.1V2.3z"/>
				<path class="st0" d="M234,17.7c-0.9,2.4-1.8,4.4-2.5,6.6c-0.6,0-1.1-0.1-1.7-0.1s-1.1,0.1-1.7,0.1l10.1-22.2
					c0.5,0.1,0.9,0.1,1.3,0.1c0.5,0,0.9,0,1.3-0.1l9.9,22.3c-1-0.1-2-0.2-3-0.2c-1,0-2,0.1-3,0.2c-0.8-2.4-1.6-4.6-2.5-6.7H234z
					 M241.5,15.7l-3.1-7.5l-3.3,7.5H241.5z"/>
				<path class="st0" d="M258.4,2.3h3.5c5,5,10.3,9.9,15.3,15v-15c0.5,0.1,1,0.1,1.4,0.1c0.5,0,1,0,1.4-0.1v22l-3,0
					c-4.1-4.1-7.9-8.1-11.9-11.9l-3.8-3.7v15.5c-0.5,0-1-0.1-1.4-0.1c-0.5,0-1,0.1-1.4,0.1V2.3z"/>
			</g>
			<g>
				<path class="st0" d="M135.5,31.6c0.5,0.1,1,0.2,1.5,0.2c0.5,0,1-0.1,1.5-0.2c1.1,8.6,1.9,15.6,3.1,22c-1-0.1-1.9-0.2-2.9-0.2
					c-1,0-1.9,0.1-2.9,0.2c-0.3-5.1-1-10-1.5-15c-2.7,4.9-5.3,9.8-7.8,14.8c-0.5-0.1-0.9-0.1-1.3,0c-2.3-4.4-5.1-9.4-7.7-14.4
					c-0.8,5.7-1.4,10.1-1.5,14.6c-0.6-0.1-1.1-0.2-1.7-0.2c-0.6,0-1.1,0.1-1.6,0.2c1.3-6.5,2.4-13.9,3.6-22c0.5,0.1,1,0.2,1.4,0.2
					c0.5,0,1-0.1,1.5-0.2c2.5,5,5.3,10,8.1,15.1C129.9,42.1,132.9,37.1,135.5,31.6z"/>
				<path class="st0" d="M162.3,31.6c-0.1,0.5-0.2,0.9-0.2,1.4s0.1,0.9,0.2,1.4c-2.2-0.3-4.6-0.5-8.2-0.4v6.9h3.7
					c1.6,0,3-0.1,4.3-0.3c-0.1,0.4-0.2,0.9-0.2,1.4c0,0.4,0.1,0.9,0.2,1.4c-1.3-0.2-2.8-0.3-4.3-0.3h-3.7v8.2c3.6,0,6-0.2,8.2-0.4
					c-0.1,0.4-0.2,0.9-0.2,1.4c0,0.4,0.1,0.9,0.2,1.4h-13.5V31.6H162.3z"/>
				<path class="st0" d="M183.1,31.6c-0.1,0.5-0.2,0.9-0.2,1.4s0.1,0.9,0.2,1.4c-2.2-0.3-4.6-0.5-8.2-0.4v6.9h3.7
					c1.6,0,3-0.1,4.3-0.3c-0.1,0.4-0.2,0.9-0.2,1.4c0,0.4,0.1,0.9,0.2,1.4c-1.3-0.2-2.8-0.3-4.3-0.3H175v8.2c3.6,0,6-0.2,8.2-0.4
					c-0.1,0.4-0.2,0.9-0.2,1.4c0,0.4,0.1,0.9,0.2,1.4h-13.5V31.6H183.1z"/>
				<path class="st0" d="M200.5,53.6c-0.9-0.1-1.8-0.2-2.6-0.2c-0.9,0-1.8,0.1-2.6,0.2V33.9c-2.5,0-4.7,0.2-6.6,0.4
					c0.1-0.4,0.2-0.9,0.2-1.4c0-0.4-0.1-0.9-0.2-1.3h18.2c-0.1,0.5-0.2,0.9-0.2,1.3c0,0.5,0.1,0.9,0.2,1.4c-2.1-0.2-4.2-0.4-6.3-0.4
					V53.6z"/>
				<path class="st0" d="M213.3,31.6c0.9,0.1,1.8,0.2,2.6,0.2c0.9,0,1.8-0.1,2.6-0.2v22c-0.9-0.1-1.8-0.2-2.6-0.2
					c-0.9,0-1.8,0.1-2.6,0.2V31.6z"/>
				<path class="st0" d="M227.5,31.6h3.5c5,5,10.3,9.9,15.3,15v-15c0.5,0.1,1,0.1,1.4,0.1c0.5,0,1,0,1.4-0.1v22l-3,0
					c-4.1-4.1-7.9-8.1-11.9-11.9l-3.8-3.7v15.5c-0.5,0-1-0.1-1.4-0.1c-0.5,0-1,0.1-1.4,0.1V31.6z"/>
				<path class="st0" d="M280,52.6c-3.2,0.8-6.3,1.4-9.4,1.4c-7.5,0-14.1-3.4-14.1-10.9c0-8,6.4-12.1,14.6-12.1c3,0,5.9,0.6,8.5,2
					c-0.5,1-0.8,2.2-1,3.2h-0.5c-1.6-2.2-4.2-3.3-7-3.3c-5.9,0-8.8,4.8-8.8,10.2c0,5.6,3.1,8.9,8.5,8.9c1.8,0,3-0.5,3.9-0.9v-7.5
					c0.9,0.1,1.8,0.2,2.7,0.2c0.9,0,1.8-0.1,2.6-0.2V52.6z"/>
			</g>
		</g>
		<g>
			<g>
				<path class="st1" d="M99.9,54.8L70.7,8.5l0,0l-5.2-8.3H49.8l-5.2,8.3l0,0l-1.2,2L43,11.1l0,0l-5.9,9.4c-0.4,0.6,1.8,2,2.2,1.4
					l5.1-8.1c0,0,0,0.1,0.1,0.1c0.1,0.1,0.1,0.2,0.2,0.2c0.1,0.1,0.1,0.1,0.2,0.2c0.1,0.1,0.2,0.1,0.3,0.2c0.1,0,0.1,0.1,0.2,0.1
					c0.1,0.1,0.2,0.1,0.4,0.1c0.1,0,0.1,0.1,0.2,0.1c0.2,0.1,0.4,0.1,0.6,0.1c1.7,0,2.5-1.6,3-2.7c0.2-0.4,0.5-1.1,0.7-1.2
					c0.2,0.1,0.5,0.8,0.7,1.2c0.5,1.1,1.3,2.7,3,2.7c1.7,0,2.5-1.6,3-2.7c0.2-0.4,0.5-1.1,0.7-1.2c0.2,0.1,0.5,0.8,0.7,1.2
					c0.5,1.1,1.3,2.7,3,2.7c1.7,0,2.5-1.6,3-2.7c0.2-0.4,0.5-1.1,0.7-1.2c0.2,0.1,0.5,0.8,0.7,1.2c0.5,1.1,1.3,2.7,3,2.7
					c0.2,0,0.4,0,0.6-0.1c0.1,0,0.1,0,0.2-0.1c0.1,0,0.2-0.1,0.4-0.1c0.1,0,0.1-0.1,0.2-0.1c0.1-0.1,0.2-0.1,0.3-0.2
					c0.1-0.1,0.1-0.1,0.2-0.2c0.1-0.1,0.2-0.2,0.2-0.2c0,0,0-0.1,0.1-0.1l26.8,42.5c0.2,0.4,0.7,0.6,1.1,0.6c0.2,0,0.5-0.1,0.7-0.2
					C100.1,56.2,100.3,55.4,99.9,54.8z M65.1,8.3c-1.7,0-2.5,1.5-3,2.7c-0.2,0.4-0.5,1.1-0.7,1.2c-0.2-0.1-0.5-0.8-0.7-1.2
					c-0.5-1.1-1.3-2.7-3-2.7c-0.2,0-0.4,0-0.6,0.1c-1.3,0.3-1.9,1.6-2.4,2.6c-0.2,0.4-0.5,1.1-0.7,1.2c-0.2-0.1-0.5-0.8-0.7-1.2
					c-0.5-1.1-1.3-2.7-3-2.7c-1.7,0-2.5,1.6-3,2.7c-0.2,0.4-0.5,1.1-0.7,1.2c0,0-0.1-0.1-0.1-0.1c0,0,0,0,0,0c0-0.1-0.1-0.1-0.1-0.2
					c0,0,0,0,0-0.1c0-0.1-0.1-0.2-0.1-0.2c0,0,0,0,0,0c-0.1-0.1-0.1-0.2-0.1-0.3l0,0l5.3-8.4h12.8l5.3,8.4l0,0
					c-0.2,0.4-0.4,0.8-0.6,1c0,0,0,0,0,0c0,0-0.1-0.1-0.1-0.2c0,0,0,0,0,0c-0.1-0.1-0.1-0.2-0.2-0.3c0,0,0,0,0,0
					c-0.1-0.1-0.1-0.2-0.2-0.3c0,0,0,0,0,0c-0.1-0.1-0.1-0.2-0.2-0.3C67.6,9.8,66.8,8.3,65.1,8.3z"/>
				<g>
					<g>
						<path class="st1" d="M2.7,57.5V43c0-1.4,0.9-2.4,2.4-2.4c1.7,0,2.5,1.3,3,2.4l4.1,8.5h0h0V40.9h3.5v14.5c0,1.3-0.5,2.4-2,2.4
							c-1.5,0-2.1-0.9-2.9-2.5l-4.7-9.7l0,0v11.9H2.7z"/>
					</g>
					<rect x="18.8" y="40.9" class="st1" width="3.5" height="16.6"/>
					<rect x="25.3" y="40.9" class="st1" width="3.5" height="16.6"/>
				</g>
				<g>
					<path class="st2" d="M98.8,56.7c-0.3,0-0.6-0.1-0.8-0.3c-0.4-0.3-38.7-32.7-97-44.9c-0.7-0.1-1.1-0.8-1-1.5
						c0.1-0.7,0.8-1.1,1.5-1c59,12.4,97.7,45.1,98.1,45.4c0.5,0.5,0.6,1.3,0.1,1.8C99.5,56.6,99.2,56.7,98.8,56.7L98.8,56.7z"/>
					<path class="st3" d="M98.8,56.7c-0.3,0-0.5-0.1-0.7-0.2c-0.4-0.3-39.8-27-97-35.3c-0.7-0.1-1.2-0.8-1.1-1.5
						c0.1-0.7,0.7-1.2,1.5-1.1c57.8,8.4,97.7,35.4,98.1,35.7c0.6,0.4,0.7,1.2,0.3,1.8C99.6,56.5,99.2,56.7,98.8,56.7L98.8,56.7z"/>
					<path class="st1" d="M98.8,56.7c-0.2,0-0.4,0-0.6-0.2c-0.4-0.2-40.9-21.6-97-26c-0.7-0.1-1.2-0.7-1.2-1.4
						c0.1-0.7,0.7-1.2,1.4-1.2c56.7,4.4,97.6,26.1,98,26.3c0.6,0.3,0.9,1.1,0.5,1.7C99.7,56.5,99.3,56.7,98.8,56.7L98.8,56.7z"/>
				</g>
			</g>
			<path class="st1" d="M98.8,56.7c-0.4,0-0.8-0.2-1.1-0.6l-28-44.3c-0.4-0.6-0.2-1.4,0.4-1.8c0.6-0.4,1.4-0.2,1.8,0.4l28,44.3
				c0.4,0.6,0.2,1.4-0.4,1.8C99.3,56.7,99.1,56.7,98.8,56.7L98.8,56.7z"/>
		</g>
	</g>
</g>
</svg>
