<?xml version="1.0" encoding="utf-8"?>
<!-- Generator: Adobe Illustrator 16.0.3, SVG Export Plug-In . SVG Version: 6.00 Build 0)  -->
<!DOCTYPE svg PUBLIC "-//W3C//DTD SVG 1.1//EN" "http://www.w3.org/Graphics/SVG/1.1/DTD/svg11.dtd">
<svg version="1.1" id="HS_Kempten_Logo" xmlns="http://www.w3.org/2000/svg" xmlns:xlink="http://www.w3.org/1999/xlink" x="0px"
	 y="0px" width="820px" height="382px" viewBox="0 0 820 382" enable-background="new 0 0 820 382" xml:space="preserve">
<path opacity="0.6" d="M321.366,235.366h-8.564v50.989h10.732V248.26c0,0,6.227-4.424,12.535-4.424c3.958,0,6.882,0.671,6.882,5.964
	v36.555h10.738v-36.759c0-11.64-5.748-15.194-14.041-15.194c-8.949,0-16.398,6.831-16.398,6.831L321.366,235.366z M277.095,257.212
	c0.095-10.88,3.29-15.115,9.51-15.115c5.659,0,8.199,4.043,8.287,15.115H277.095z M266.351,260.861
	c0,23.667,12.062,26.462,22.139,26.462c7.26,0,14.041-2.502,14.041-2.502v-9.144c0,0-8.287,2.6-14.041,2.6
	c-4.519,0-11.394-1.059-11.495-13.858h28.271l0.095-3.558c0.561-22.224-9.989-26.458-18.754-26.458
	C276.994,234.402,266.351,239.696,266.351,260.861 M194.187,246.379c0.945-0.958,5.375-3.75,9.799-3.75
	c5.564,0,9.61,1.635,9.61,17.696c0,16.363-5.653,18.48-10.738,18.48c-3.769,0-7.916-1.349-8.671-1.635V246.379z M191.742,235.127
	h-8.287v69.271h10.732v-19.526c0.756,0.479,4.903,2.212,9.238,2.212c6.687,0,20.917-2.212,20.917-26.758
	c0-23.755-10.928-26.159-18.56-26.159c-6.787,0-11.028,4.323-12.345,5.961L191.742,235.127z M20.745,218.77H10.006v67.346h10.738
	V218.77z M42.039,208.359h10.745v-67.365H42.039v26.468H20.745v-26.468H10.006v67.365h10.738v-31.951h21.294V208.359z
	 M40.627,287.083l12.156-0.971l-19.227-37.037l18.282-30.306H39.405l-16.681,30.785L40.627,287.083z M67.196,256.963
	c0.095-10.871,3.296-15.106,9.516-15.106c5.653,0,8.199,4.042,8.287,15.106H67.196z M56.452,260.625
	c0,23.667,12.062,26.459,22.145,26.459c7.253,0,14.034-2.505,14.034-2.505v-9.138c0,0-8.293,2.596-14.034,2.596
	c-4.525,0-11.4-1.059-11.495-13.858h28.264l0.094-3.554c0.561-22.233-9.988-26.458-18.748-26.458
	C67.102,234.166,56.452,239.457,56.452,260.625 M94.742,182.858c0,16.637-6.592,18.374-10.839,18.374
	c-4.235,0-10.833-1.632-10.833-18.374c0-16.939,5.653-18.48,10.833-18.48C89.089,164.378,94.742,165.538,94.742,182.858
	 M105.481,182.858c0-23.188-11.961-26.458-21.578-26.458c-9.604,0-21.571,3.851-21.571,26.458c0,23.094,12.062,26.459,21.571,26.459
	C93.324,209.317,105.481,206.33,105.481,182.858 M114.411,235.127h-8.571v50.986h10.739v-38.479c0,0,5.375-4.046,10.738-4.046
	c3.586,0,5.848,0.87,5.848,5.775v36.75h10.745v-38.479c0,0,5.93-4.046,10.738-4.046c3.58,0,5.842,0.87,5.842,5.775v36.75h10.739
	v-36.75c0-11.545-5.187-15.197-13.096-15.197c-7.442,0-13.379,5.482-15.358,7.304c-1.417-4.9-5.936-7.304-11.967-7.304
	c-8.104,0-14.513,6.542-14.513,6.542L114.411,235.127z M134.741,209.317c5.558,0,11.028-2.02,11.028-2.02v-9.242
	c0,0-6.22,2.121-10.556,2.121c-5.748,0-11.211-2.02-11.211-17.031c0-16.357,6.22-17.897,11.961-17.897
	c3.958,0,9.806,1.922,9.806,1.922v-8.75c0,0-4.248-2.02-10.083-2.02c-8.01,0-22.429,2.496-22.429,26.746
	C113.257,207.2,126.076,209.317,134.741,209.317 M185.755,208.359h10.738v-36.762c0-11.542-5.747-15.197-14.041-15.197
	c-8.571,0-16.108,6.728-16.108,6.728v-24.048H155.6v69.28h10.745v-38.013c0,0,6.977-4.521,12.528-4.521
	c4.43,0,6.882,0.769,6.882,5.964V208.359z M214.775,170.734c0-4.141,3.107-5.486,8.01-5.486c4.613,0,11.589,2.108,11.589,2.108
	v-8.747c0,0-5.47-2.209-12.251-2.209c-9.611,0-17.621,4.141-17.621,15.005c0,9.043,6.315,12.317,10.461,14.05l4.424,1.828
	c3.775,1.538,6.598,2.596,6.598,6.926c0,5.287-3.958,6.157-8.577,6.157c-3.958,0-12.056-2.501-12.056-2.501v9.238
	c0,0,6.781,2.215,12.528,2.215c8.76,0,18.464-2.118,18.464-15.692c0-8.845-4.991-12.5-10.171-14.523l-4.808-1.824
	C218.166,176.024,214.775,174.965,214.775,170.734 M246.77,219.968l-10.089,3.942l-0.655,11.457h-8.476v7.796h8.476v30.882
	c0,10.969,5.464,13.278,12.44,13.278c5.741,0,11.022-1.928,11.022-1.928v-8.757c0,0-6.031,1.739-8.672,1.739
	c-2.445,0-4.046-0.488-4.046-4.235v-30.98h10.171l1.135-7.796H246.77V219.968z M264.97,209.317c5.558,0,11.022-2.02,11.022-2.02
	v-9.242c0,0-6.22,2.121-10.549,2.121c-5.748,0-11.211-2.02-11.211-17.031c0-16.357,6.213-17.897,11.961-17.897
	c3.958,0,9.799,1.922,9.799,1.922v-8.75c0,0-4.248-2.02-10.083-2.02c-8.01,0-22.422,2.496-22.422,26.746
	C243.487,207.2,256.299,209.317,264.97,209.317 M316.022,208.359h10.745v-36.762c0-11.542-5.748-15.197-14.041-15.197
	c-8.577,0-16.108,6.728-16.108,6.728v-24.048H285.88v69.28h10.739v-38.013c0,0,6.97-4.521,12.528-4.521
	c4.43,0,6.875,0.769,6.875,5.964V208.359z M369.355,208.359h8.766v-50.999h-10.738v38.203c0,0-6.031,4.424-11.407,4.424
	c-4.241,0-6.119-1.831-6.119-7.313v-35.313h-10.745v37.043c0,11.252,5.93,14.914,13.946,14.914c8.293,0,14.885-7.027,14.885-7.027
	L369.355,208.359z M390.366,208.359h10.745v-69.28h-10.745V208.359z M440.567,179.2h-17.809c0.095-10.864,3.296-15.099,9.516-15.099
	C437.934,164.101,440.473,168.141,440.567,179.2 M451.029,182.858c0.561-22.23-9.989-26.458-18.754-26.458
	c-9.604,0-20.255,5.284-20.255,26.458c0,23.667,12.062,26.459,22.139,26.459c7.253,0,14.034-2.505,14.034-2.505v-9.138
	c0,0-8.287,2.6-14.034,2.6c-4.525,0-11.4-1.059-11.489-13.854h28.264L451.029,182.858z"/>
<path opacity="0.4" d="M611.646,329.14h-6.648v31.537h6.648V329.14z M466.632,329.14h-6.642v31.537h6.642V329.14z M203.923,328.544
	h-6.642v31.537h6.642V328.544z M83.877,328.544h-6.642v31.537h6.642V328.544z M35.057,348.062v-29.633h-6.643v29.928
	c0,4.945-2.042,6.73-5.886,6.73c-4.134,0-5.886-1.842-5.886-6.73v-29.928H10v29.633c0,8.566,3.321,12.613,12.528,12.613
	C31.382,360.675,35.057,356.392,35.057,348.062 M62.729,360.081h6.642v-22.73c0-7.199-3.554-9.396-8.678-9.396
	c-5.54,0-10.14,4.227-10.14,4.227l-1.166-3.637h-5.3v31.537h6.642v-23.559c0,0,3.844-2.748,7.745-2.748
	c2.445,0,4.254,0.422,4.254,3.689V360.081z M84.697,319.796c0-2.381-1.802-4.275-4.14-4.275c-2.326,0-4.078,1.895-4.078,4.275
	c0,2.379,1.752,4.285,4.078,4.285C82.895,324.081,84.697,322.175,84.697,319.796 M107.932,360.081l10.197-31.537h-7.632
	l-4.72,19.404c-0.756,3.211-1.752,8.623-1.752,8.623s-0.933-5.297-1.746-8.623l-4.72-19.404h-7.631l10.133,31.537H107.932z
	 M137.52,342.046h-11.016c0.057-6.719,2.042-9.334,5.886-9.334C135.888,332.712,137.457,335.208,137.52,342.046 M143.929,346.515
	l0.057-2.203c0.353-13.738-6.176-16.357-11.595-16.357c-5.943,0-12.528,3.268-12.528,16.357c0,14.639,7.461,16.363,13.694,16.363
	c4.487,0,8.684-1.541,8.684-1.541v-5.652c0,0-5.129,1.605-8.684,1.605c-2.798,0-7.052-0.658-7.108-8.572H143.929z M162.041,334.56
	c1.922,0,4.197,0.596,4.197,0.596v-6.848c0,0-1.456-0.354-2.975-0.354c-4.424,0-6.176,4.283-6.176,4.283l-0.87-3.693h-5.25v31.537
	h6.642v-23.688C157.61,336.394,159.306,334.56,162.041,334.56 M177.524,336.815c0-2.559,1.922-3.395,4.954-3.395
	c2.854,0,7.165,1.311,7.165,1.311v-5.41c0,0-3.378-1.367-7.575-1.367c-5.943,0-10.896,2.559-10.896,9.283
	c0,5.594,3.907,7.609,6.466,8.682l2.741,1.131c2.332,0.951,4.077,1.607,4.077,4.285c0,3.277-2.445,3.813-5.3,3.813
	c-2.445,0-7.461-1.547-7.461-1.547v5.707c0,0,4.197,1.367,7.751,1.367c5.419,0,11.425-1.309,11.425-9.695
	c0-5.471-3.094-7.736-6.296-8.988l-2.974-1.131C179.623,340.085,177.524,339.437,177.524,336.815 M204.736,319.796
	c0-2.381-1.809-4.275-4.141-4.275c-2.332,0-4.077,1.895-4.077,4.275c0,2.379,1.746,4.285,4.077,4.285
	C202.928,324.081,204.736,322.175,204.736,319.796 M224.197,360.675c3.554,0,6.819-1.189,6.819-1.189v-5.41
	c0,0-3.731,1.072-5.363,1.072c-1.512,0-2.502-0.303-2.502-2.619v-19.164h6.29l0.7-4.82h-6.989v-9.521l-6.239,2.436l-0.403,7.086
	h-5.25v4.82h5.25v19.105C216.508,359.247,219.886,360.675,224.197,360.675 M250.514,364.251l10.543-35.707h-7.279l-5.539,23.803
	l-6.875-23.803h-7.632l11.715,31.002l-0.41,1.73c-0.876,3.689-2.162,5.291-4.317,5.291c-1.689,0-5.476-0.893-5.476-0.893v5.297
	c0,0,3.208,1.014,6.006,1.014C244.917,371.985,248.591,370.792,250.514,364.251 M298.371,344.312
	c0,10.301-4.071,11.371-6.699,11.371c-2.622,0-6.699-1.012-6.699-11.371c0-10.469,3.491-11.426,6.699-11.426
	C294.879,332.886,298.371,333.601,298.371,344.312 M305.013,344.312c0-14.334-7.398-16.357-13.341-16.357
	c-5.942,0-13.341,2.379-13.341,16.357c0,14.287,7.455,16.363,13.341,16.363C297.501,360.675,305.013,358.837,305.013,344.312
	 M323.2,322.122c2.672,0,5.937,1.012,5.937,1.012v-5.184c0,0-2.912-1.301-6.706-1.301c-5.237,0-9.547,2.258-9.547,9.398v2.496h-5.25
	v4.82h5.25v26.717h6.643v-26.717h6.289l0.7-4.82h-6.989v-2.496C319.526,323.315,320.686,322.122,323.2,322.122 M364.024,346.454
	h-10.134l2.912-12.793c1.046-4.521,2.155-10.598,2.155-10.598s1.16,6.133,2.155,10.598L364.024,346.454z M367.112,360.675h7.108
	l-11.123-41.652h-8.218l-11.186,41.652h7.102l1.985-8.682h12.415L367.112,360.675z M398.697,344.733
	c0,10.111-3.498,11.426-6.642,11.426c-2.332,0-4.896-0.838-5.356-1.012v-19.039c0.573-0.602,3.314-2.334,6.05-2.334
	C396.189,333.774,398.697,334.792,398.697,344.733 M405.333,344.733c0-14.695-6.75-16.189-11.476-16.189
	c-4.197,0-6.813,2.678-7.631,3.693l-1.053-3.098h-5.124v42.846h6.649v-12.084c0.46,0.303,3.025,1.375,5.703,1.375
	C396.536,361.276,405.333,359.901,405.333,344.733 M430.396,344.733c0,10.111-3.498,11.426-6.649,11.426
	c-2.325,0-4.89-0.838-5.363-1.012v-19.039c0.586-0.602,3.327-2.334,6.063-2.334C427.888,333.774,430.396,334.792,430.396,344.733
	 M437.032,344.733c0-14.695-6.756-16.189-11.476-16.189c-4.197,0-6.818,2.678-7.638,3.693l-1.046-3.098h-5.123v42.846h6.636v-12.084
	c0.473,0.303,3.038,1.375,5.716,1.375C428.235,361.276,437.032,359.901,437.032,344.733 M444.324,360.675h6.636v-42.838h-6.636
	V360.675z M467.452,320.399c0-2.383-1.802-4.287-4.14-4.287c-2.332,0-4.078,1.904-4.078,4.287c0,2.381,1.746,4.281,4.078,4.281
	C465.649,324.681,467.452,322.78,467.452,320.399 M491.733,342.651h-11.009c0.063-6.725,2.036-9.344,5.886-9.344
	C490.101,333.308,491.676,335.804,491.733,342.651 M498.148,347.108l0.057-2.201c0.353-13.742-6.169-16.363-11.596-16.363
	c-5.936,0-12.522,3.273-12.522,16.363c0,14.639,7.456,16.369,13.682,16.369c4.487,0,8.69-1.547,8.69-1.547v-5.654
	c0,0-5.13,1.607-8.69,1.607c-2.786,0-7.045-0.658-7.096-8.574H498.148z M522.972,353.54c-0.529,0.414-3.157,2.496-6.006,2.496
	c-3.264,0-6.592-0.775-6.592-11.129c0-9.936,3.681-11.006,7.172-11.006c2.735,0,4.959,1.605,5.426,1.963V353.54z M524.421,360.675
	h5.187v-42.838h-6.636v13.445c-0.347-0.412-2.515-2.738-6.529-2.738c-3.907,0-12.705,1.789-12.705,16.363
	c0,14.285,6.932,16.369,11.539,16.369c4.833,0,7.802-2.914,8.331-3.576L524.421,360.675z M558.275,329.14
	c0-3.863,2.496-5.117,5.999-5.117c3.611,0,7.626,1.607,7.626,1.607v-5.711c0,0-3.436-1.49-7.865-1.49
	c-5.363,0-12.289,2.439-12.289,11.186c0,5.357,3.025,8.455,6.403,10.598l3.958,2.496c2.747,1.729,4.789,3.277,4.789,6.959
	c0,4.762-3.088,5.891-6.706,5.891c-2.912,0-8.041-1.604-8.041-1.604v5.947c0,0,4.027,1.375,8.564,1.375
	c6.126,0,12.818-1.91,12.818-11.961c0-6.545-3.668-9.525-7.405-11.904l-3.371-2.143C560.248,333.661,558.275,332.181,558.275,329.14
	 M591.486,361.276c3.435,0,6.807-1.254,6.807-1.254v-5.713c0,0-3.845,1.314-6.529,1.314c-3.548,0-6.932-1.252-6.932-10.537
	c0-10.115,3.85-11.064,7.398-11.064c2.457,0,6.063,1.186,6.063,1.186v-5.41c0,0-2.622-1.254-6.227-1.254
	c-4.953,0-13.871,1.551-13.871,16.543C578.195,359.956,586.117,361.276,591.486,361.276 M612.459,320.399
	c0-2.383-1.809-4.287-4.14-4.287c-2.332,0-4.078,1.904-4.078,4.287c0,2.381,1.746,4.281,4.078,4.281
	C610.65,324.681,612.459,322.78,612.459,320.399 M635.398,342.651h-11.016c0.057-6.725,2.042-9.344,5.88-9.344
	C633.754,333.308,635.335,335.804,635.398,342.651 M641.795,347.108l0.057-2.201c0.359-13.742-6.17-16.363-11.589-16.363
	c-5.937,0-12.528,3.273-12.528,16.363c0,14.639,7.461,16.369,13.7,16.369c4.487,0,8.678-1.547,8.678-1.547v-5.654
	c0,0-5.124,1.607-8.678,1.607c-2.805,0-7.052-0.658-7.108-8.574H641.795z M666.253,360.675h6.648v-22.729
	c0-7.199-3.561-9.402-8.69-9.402c-5.539,0-10.134,4.229-10.134,4.229l-1.172-3.633h-5.294v31.535h6.636V337.11
	c0,0,3.851-2.73,7.752-2.73c2.451,0,4.254,0.412,4.254,3.689V360.675z M692.299,361.276c3.435,0,6.818-1.254,6.818-1.254v-5.713
	c0,0-3.851,1.314-6.528,1.314c-3.548,0-6.933-1.252-6.933-10.537c0-10.115,3.845-11.064,7.398-11.064
	c2.445,0,6.063,1.186,6.063,1.186v-5.41c0,0-2.621-1.254-6.232-1.254c-4.96,0-13.871,1.551-13.871,16.543
	C679.014,359.956,686.936,361.276,692.299,361.276 M721.723,342.651h-11.016c0.063-6.725,2.041-9.344,5.892-9.344
	C720.09,333.308,721.659,335.804,721.723,342.651 M728.138,347.108l0.051-2.201c0.347-13.742-6.176-16.363-11.59-16.363
	c-5.948,0-12.528,3.273-12.528,16.363c0,14.639,7.455,16.369,13.688,16.369c4.486,0,8.684-1.547,8.684-1.547v-5.654
	c0,0-5.136,1.607-8.684,1.607c-2.798,0-7.052-0.658-7.108-8.574H728.138z M744.429,334.022c2.854,0,7.165,1.305,7.165,1.305v-5.416
	c0,0-3.378-1.367-7.575-1.367c-5.937,0-10.89,2.564-10.89,9.285c0,5.598,3.895,7.613,6.459,8.686l2.742,1.131
	c2.331,0.951,4.083,1.6,4.083,4.287c0,3.268-2.451,3.805-5.306,3.805c-2.445,0-7.455-1.547-7.455-1.547v5.711
	c0,0,4.19,1.375,7.745,1.375c5.419,0,11.419-1.32,11.419-9.705c0-5.471-3.088-7.73-6.289-8.98l-2.975-1.135
	c-1.979-0.768-4.078-1.428-4.078-4.045C739.475,334.854,741.397,334.022,744.429,334.022"/>
<g opacity="0.5">
	<rect x="470.615" y="112.242" fill="#005DA9" width="23.513" height="24.007"/>
	<polygon fill="#005DA9" points="489.023,200.728 499.598,219.432 517.924,208.63 507.343,189.911 	"/>
	<polygon fill="#005DA9" points="548.072,267.147 564.564,276.868 574.08,260.032 557.595,250.305 	"/>
	<rect x="631.265" y="276.379" fill="#005DA9" width="17.141" height="17.513"/>
	<polygon fill="#005DA9" points="686.211,282.483 699.564,274.612 691.852,260.965 678.497,268.849 	"/>
	<polygon fill="#005DA9" points="727.627,244.668 734.565,232.382 722.542,225.299 715.597,237.569 	"/>
	<rect x="732.076" y="178.384" fill="#005DA9" width="12.491" height="12.768"/>
	<polygon fill="#005DA9" points="738.151,156.759 732.53,146.805 722.794,152.559 728.409,162.491 	"/>
	<polygon fill="#005DA9" points="715.799,130.669 707.039,125.501 701.979,134.454 710.731,139.624 	"/>
	<rect x="674.823" y="119.776" fill="#005DA9" width="9.112" height="9.305"/>
	<polygon fill="#005DA9" points="661.224,124.068 654.121,128.255 658.23,135.509 665.333,131.331 	"/>
	<polygon fill="#005DA9" points="643.943,139.306 640.257,145.834 646.635,149.594 650.334,143.075 	"/>
	<rect x="636.614" y="161.079" fill="#005DA9" width="6.637" height="6.778"/>
	<polygon fill="#005DA9" points="638.461,173.425 641.448,178.706 646.629,175.652 643.642,170.371 	"/>
	<polygon fill="#005DA9" points="645.998,182.959 650.662,185.698 653.347,180.946 648.683,178.205 	"/>
	<polygon fill="#005DA9" points="657.096,187.169 661.936,187.169 661.936,182.222 657.096,182.231 	"/>
</g>
<g opacity="0.5">
	<polygon fill="#005DA9" points="489.628,73.551 484.719,97.026 507.708,102.04 512.618,78.571 	"/>
	<polygon fill="#005DA9" points="489.521,164.003 496.037,184.563 516.178,177.899 509.656,157.345 	"/>
	<polygon fill="#005DA9" points="533.691,241.567 547.827,254.594 560.582,240.146 546.446,227.117 	"/>
	<polygon fill="#005DA9" points="609.579,285.454 626.343,289.109 629.916,271.987 613.159,268.335 	"/>
	<polygon fill="#005DA9" points="665.635,286.024 680.313,281.166 675.561,266.183 660.89,271.029 	"/>
	<polygon fill="#005DA9" points="713.877,257.877 723.172,247.346 712.868,237.843 703.561,248.377 	"/>
	<polygon fill="#005DA9" points="741.397,209.15 744,196.666 731.78,194.003 729.171,206.475 	"/>
	<polygon fill="#005DA9" points="742.153,174.146 738.693,163.219 727.986,166.77 731.452,177.694 	"/>
	<polygon fill="#005DA9" points="725.63,143.875 718.124,136.943 711.337,144.619 718.855,151.547 	"/>
	<polygon fill="#005DA9" points="696.697,126.418 687.78,124.478 685.89,133.578 694.794,135.519 	"/>
	<polygon fill="#005DA9" points="673.607,125.779 665.812,128.356 668.332,136.315 676.141,133.748 	"/>
	<polygon fill="#005DA9" points="653.592,136.984 648.658,142.583 654.134,147.621 659.068,142.028 	"/>
	<polygon fill="#005DA9" points="641.965,156.718 640.591,163.354 647.069,164.766 648.462,158.13 	"/>
	<polygon fill="#005DA9" points="641.253,169.187 643.087,174.987 648.777,173.113 646.938,167.306 	"/>
	<polygon fill="#005DA9" points="646.673,180.114 650.674,183.792 654.272,179.717 650.283,176.04 	"/>
	<polygon fill="#005DA9" points="656.668,186.605 661.394,187.626 662.408,182.802 657.676,181.771 	"/>
</g>
<g opacity="0.5">
	<polygon fill="#005DA9" points="516.128,39.76 506.523,61.679 527.976,71.491 537.586,49.573 	"/>
	<polygon fill="#005DA9" points="497.524,128.189 499.692,149.688 520.753,147.483 518.579,125.983 	"/>
	<polygon fill="#005DA9" points="524.85,213.47 536.011,229.225 551.444,217.825 540.277,202.073 	"/>
	<polygon fill="#005DA9" points="590.088,272.583 605.729,279.726 612.736,263.76 597.089,256.607 	"/>
	<polygon fill="#005DA9" points="644.801,285.092 660.146,283.472 658.564,267.796 643.213,269.419 	"/>
	<polygon fill="#005DA9" points="697.73,267.856 708.974,259.547 700.844,248.055 689.589,256.358 	"/>
	<polygon fill="#005DA9" points="734.604,226.074 739.708,214.438 728.314,209.216 723.197,220.866 	"/>
	<polygon fill="#005DA9" points="742.506,192.003 741.359,180.59 730.167,181.769 731.32,193.19 	"/>
	<polygon fill="#005DA9" points="732.536,158.867 726.606,150.495 718.414,156.558 724.351,164.933 	"/>
	<polygon fill="#005DA9" points="707.814,135.632 699.495,131.838 695.777,140.324 704.09,144.136 	"/>
	<polygon fill="#005DA9" points="685.373,130.083 677.212,130.94 678.057,139.271 686.217,138.414 	"/>
	<polygon fill="#005DA9" points="663.499,136.779 657.531,141.193 661.854,147.297 667.834,142.882 	"/>
	<polygon fill="#005DA9" points="648.104,153.596 645.394,159.787 651.449,162.551 654.166,156.359 	"/>
	<polygon fill="#005DA9" points="644.852,165.623 645.456,171.698 651.405,171.077 650.781,164.999 	"/>
	<polygon fill="#005DA9" points="647.914,177.477 651.071,181.938 655.426,178.706 652.269,174.269 	"/>
	<polygon fill="#005DA9" points="656.353,185.95 660.782,187.973 662.749,183.463 658.331,181.441 	"/>
</g>
<g opacity="0.5">
	<polygon fill="#005DA9" points="548.961,12.378 535.078,31.76 554.059,45.924 567.936,26.545 	"/>
	<polygon fill="#005DA9" points="512.674,94.893 510.399,116.376 531.441,118.705 533.717,97.218 	"/>
	<polygon fill="#005DA9" points="521.951,184.113 529.652,201.906 547.064,194.048 539.376,176.251 	"/>
	<polygon fill="#005DA9" points="573.665,255.835 587.504,266.173 597.618,252.048 583.779,241.712 	"/>
	<polygon fill="#005DA9" points="624.609,279.735 639.942,281.44 641.605,265.776 626.267,264.081 	"/>
	<polygon fill="#005DA9" points="679.891,274.17 692.595,268.442 686.986,255.479 674.281,261.208 	"/>
	<polygon fill="#005DA9" points="724.502,241.183 731.881,230.882 721.805,223.355 714.425,233.655 	"/>
	<polygon fill="#005DA9" points="739.204,209.557 740.414,198.135 729.234,196.896 728.024,208.318 	"/>
	<polygon fill="#005DA9" points="736.235,175.016 732.152,165.566 722.895,169.744 726.972,179.2 	"/>
	<polygon fill="#005DA9" points="716.801,147.022 709.452,141.527 704.077,149.039 711.425,154.531 	"/>
	<polygon fill="#005DA9" points="695.998,136.807 687.843,135.903 686.955,144.231 695.104,145.129 	"/>
	<polygon fill="#005DA9" points="673.235,138.685 666.479,141.729 669.467,148.626 676.216,145.583 	"/>
	<polygon fill="#005DA9" points="654.732,151.837 650.819,157.317 656.176,161.318 660.096,155.839 	"/>
	<polygon fill="#005DA9" points="649.093,162.926 648.449,168.991 654.38,169.637 655.035,163.572 	"/>
	<polygon fill="#005DA9" points="649.666,175.17 651.84,180.187 656.756,177.972 654.582,172.946 	"/>
	<polygon fill="#005DA9" points="656.188,185.25 660.09,188.174 662.95,184.179 659.043,181.264 	"/>
</g>
<g opacity="0.5">
	<polygon fill="#005DA9" points="534.303,65.554 527.686,86.086 547.783,92.842 554.406,72.319 	"/>
	<polygon fill="#005DA9" points="525.133,154.787 529.015,173.818 547.663,169.854 543.774,150.816 	"/>
	<polygon fill="#005DA9" points="561.023,235.953 572.455,249.004 585.223,237.361 573.81,224.294 	"/>
	<polygon fill="#005DA9" points="605.956,270.197 620.607,275.128 625.429,260.18 610.783,255.236 	"/>
	<polygon fill="#005DA9" points="661.167,276.543 674.754,273.657 671.925,259.78 658.331,262.667 	"/>
	<polygon fill="#005DA9" points="711.538,253.796 720.859,245.298 712.54,235.776 703.22,244.293 	"/>
	<polygon fill="#005DA9" points="732.379,226.005 735.901,215.09 725.214,211.507 721.697,222.403 	"/>
	<polygon fill="#005DA9" points="736.538,191.606 734.478,181.488 724.571,183.596 726.638,193.71 	"/>
	<polygon fill="#005DA9" points="723.272,160.074 717.191,153.136 710.404,159.327 716.473,166.275 	"/>
	<polygon fill="#005DA9" points="705.003,145.646 697.221,143.027 694.655,150.983 702.438,153.599 	"/>
	<polygon fill="#005DA9" points="682.367,142.633 675.139,144.162 676.645,151.538 683.866,150 	"/>
	<polygon fill="#005DA9" points="661.576,151.547 656.63,156.063 661.054,161.123 666.007,156.605 	"/>
	<polygon fill="#005DA9" points="653.794,161.183 651.922,166.987 657.601,168.89 659.472,163.096 	"/>
	<polygon fill="#005DA9" points="651.859,173.286 652.956,178.646 658.224,177.549 657.115,172.158 	"/>
	<polygon fill="#005DA9" points="656.176,184.547 659.402,188.222 663.007,184.932 659.774,181.249 	"/>
</g>
<g opacity="0.5">
	<polygon fill="#005DA9" points="561.458,41.478 550.782,60.141 569.064,71.031 579.727,52.377 	"/>
	<polygon fill="#005DA9" points="534.233,126.771 534.145,146.232 553.183,146.32 553.278,126.878 	"/>
	<polygon fill="#005DA9" points="552.729,213.82 561.231,229.014 576.116,220.346 567.621,205.146 	"/>
	<polygon fill="#005DA9" points="589.672,256.894 602.987,264.841 610.764,251.238 597.454,243.282 	"/>
	<polygon fill="#005DA9" points="642.362,274.879 656.245,274.942 656.309,260.767 642.432,260.697 	"/>
	<polygon fill="#005DA9" points="696.275,263.369 707.127,257.051 700.933,245.969 690.08,252.296 	"/>
	<polygon fill="#005DA9" points="722.34,240.635 728.012,230.712 718.307,224.921 712.629,234.85 	"/>
	<polygon fill="#005DA9" points="733.444,207.884 733.501,197.542 723.373,197.489 723.323,207.83 	"/>
	<polygon fill="#005DA9" points="726.915,174.215 722.396,166.14 714.481,170.75 719,178.835 	"/>
	<polygon fill="#005DA9" points="712.005,156.208 704.934,151.989 700.794,159.214 707.871,163.436 	"/>
	<polygon fill="#005DA9" points="690.49,148.438 683.11,148.393 683.066,155.93 690.452,155.965 	"/>
	<polygon fill="#005DA9" points="668.332,152.72 662.572,156.082 665.862,161.974 671.622,158.615 	"/>
	<polygon fill="#005DA9" points="658.747,160.48 655.734,165.749 660.896,168.821 663.908,163.553 	"/>
	
		<rect x="654.309" y="171.969" transform="matrix(0.0046 -1 1 0.0046 479.3627 830.8975)" fill="#005DA9" width="5.492" height="5.376"/>
	<polygon fill="#005DA9" points="656.296,183.816 658.696,188.111 662.894,185.657 660.499,181.375 	"/>
</g>
<g opacity="0.5">
	<polygon fill="#005DA9" points="592.936,23.719 578.681,39.697 594.322,54.246 608.577,38.27 	"/>
	<polygon fill="#005DA9" points="548.866,101.337 544.802,120.334 563.393,124.487 567.47,105.49 	"/>
	<polygon fill="#005DA9" points="549.156,190.396 554.349,207.071 570.684,201.765 565.484,185.089 	"/>
	<polygon fill="#005DA9" points="576.463,240.402 587.863,251.005 598.248,239.365 586.854,228.746 	"/>
	<polygon fill="#005DA9" points="624.307,269.224 637.875,272.246 640.85,258.403 627.288,255.375 	"/>
	<polygon fill="#005DA9" points="679.398,269.485 691.297,265.609 687.509,253.45 675.592,257.322 	"/>
	<polygon fill="#005DA9" points="709.541,252.804 717.115,244.309 708.797,236.576 701.223,245.071 	"/>
	<polygon fill="#005DA9" points="727.104,223.141 729.26,213.036 719.372,210.839 717.204,220.932 	"/>
	<polygon fill="#005DA9" points="727.596,188.823 724.836,179.966 716.146,182.783 718.912,191.64 	"/>
	<polygon fill="#005DA9" points="716.693,168.037 710.638,162.393 705.117,168.591 711.173,174.225 	"/>
	<polygon fill="#005DA9" points="697.246,155.842 690.03,154.229 688.461,161.589 695.664,163.197 	"/>
	<polygon fill="#005DA9" points="674.697,155.319 668.37,157.367 670.387,163.827 676.714,161.763 	"/>
	<polygon fill="#005DA9" points="663.744,160.852 659.711,165.358 664.135,169.473 668.149,164.967 	"/>
	<polygon fill="#005DA9" points="657.128,171.077 655.98,176.443 661.23,177.628 662.383,172.25 	"/>
	<polygon fill="#005DA9" points="656.573,183.158 658.035,187.869 662.648,186.372 661.174,181.652 	"/>
</g>
<g opacity="0.5">
	<polygon fill="#005DA9" points="627.357,13.075 610.152,25.65 622.467,43.214 639.665,30.645 	"/>
	<polygon fill="#005DA9" points="568.371,79.573 560.506,97.288 577.855,105.319 585.721,87.602 	"/>
	<polygon fill="#005DA9" points="550.448,166.745 552.112,184.15 569.172,182.452 567.502,165.03 	"/>
	<polygon fill="#005DA9" points="566.922,221.452 575.896,234.267 588.442,225.101 579.462,212.292 	"/>
	<polygon fill="#005DA9" points="607.821,259.856 620.463,265.72 626.197,252.804 613.556,246.937 	"/>
	<polygon fill="#005DA9" points="661.64,271.852 674.067,270.607 672.851,257.915 660.411,259.15 	"/>
	<polygon fill="#005DA9" points="694.523,261.977 703.667,255.293 697.113,245.951 687.976,252.634 	"/>
	<polygon fill="#005DA9" points="717.759,236.708 721.949,227.297 712.724,223.037 708.552,232.442 	"/>
	<polygon fill="#005DA9" points="725.264,203.264 724.382,194.007 715.319,194.917 716.202,204.175 	"/>
	<polygon fill="#005DA9" points="718.867,180.605 714.091,173.796 707.43,178.668 712.2,185.468 	"/>
	<polygon fill="#005DA9" points="702.325,164.533 695.613,161.419 692.563,168.276 699.287,171.389 	"/>
	<polygon fill="#005DA9" points="680.395,159.201 673.783,159.856 674.433,166.609 681.043,165.947 	"/>
	<polygon fill="#005DA9" points="668.547,162.286 663.682,165.831 667.16,170.791 672.025,167.249 	"/>
	<polygon fill="#005DA9" points="659.988,170.878 657.771,175.895 662.667,178.148 664.892,173.157 	"/>
	<polygon fill="#005DA9" points="656.964,182.569 657.437,187.478 662.257,187.002 661.791,182.093 	"/>
</g>
<g opacity="0.5">
	<polygon fill="#005DA9" points="663.184,10 643.793,18.636 652.237,38.44 671.647,29.81 	"/>
	<polygon fill="#005DA9" points="591.908,62.454 580.597,78.095 595.91,89.653 607.229,74.008 	"/>
	<polygon fill="#005DA9" points="556.542,143.865 554.614,161.262 571.648,163.228 573.576,145.841 	"/>
	<polygon fill="#005DA9" points="561.464,200.901 567.627,215.339 581.763,209.053 575.605,194.602 	"/>
	<polygon fill="#005DA9" points="593.604,247.164 604.777,255.605 613.021,244.195 601.859,235.754 	"/>
	<polygon fill="#005DA9" points="643.773,270.383 656.201,271.817 657.606,259.134 645.179,257.707 	"/>
	<polygon fill="#005DA9" points="677.962,267.736 688.271,263.155 683.778,252.618 673.469,257.209 	"/>
	<polygon fill="#005DA9" points="705.86,247.989 711.879,239.67 703.736,233.526 697.712,241.845 	"/>
	<polygon fill="#005DA9" points="720.033,216.876 721.067,207.631 712.011,206.595 710.996,215.827 	"/>
	<polygon fill="#005DA9" points="718.414,193.345 715.137,185.685 707.631,189.035 710.896,196.694 	"/>
	<polygon fill="#005DA9" points="705.533,174.105 699.597,169.622 695.223,175.687 701.141,180.165 	"/>
	<polygon fill="#005DA9" points="685.171,164.217 678.566,163.452 677.829,170.192 684.415,170.954 	"/>
	<polygon fill="#005DA9" points="672.945,164.696 667.469,167.138 669.857,172.738 675.34,170.305 	"/>
	<polygon fill="#005DA9" points="662.831,171.282 659.629,175.7 663.946,178.961 667.147,174.546 	"/>
	<polygon fill="#005DA9" points="657.48,182.071 656.938,186.986 661.747,187.538 662.289,182.628 	"/>
</g>
<g opacity="0.5">
	<polygon fill="#005DA9" points="698.859,14.635 678.126,18.942 682.335,40.12 703.075,35.813 	"/>
	<polygon fill="#005DA9" points="618.428,50.732 604.16,63.613 616.776,78.184 631.044,65.296 	"/>
	<polygon fill="#005DA9" points="567.186,122.808 561.741,139.404 577.994,144.958 583.445,128.356 	"/>
	<polygon fill="#005DA9" points="560.336,179.62 563.398,195.063 578.518,191.927 575.441,176.491 	"/>
	<polygon fill="#005DA9" points="582.305,231.73 591.512,242.352 601.897,232.965 592.703,222.334 	"/>
	<polygon fill="#005DA9" points="626.613,265.14 638.468,269.195 642.438,257.092 630.584,253.043 	"/>
	<polygon fill="#005DA9" points="660.587,269.844 671.615,267.566 669.372,256.292 658.35,258.592 	"/>
	<polygon fill="#005DA9" points="691.901,256.478 699.489,249.628 692.784,241.895 685.209,248.739 	"/>
	<polygon fill="#005DA9" points="712.137,229.077 715.029,220.254 706.396,217.299 703.504,226.131 	"/>
	<polygon fill="#005DA9" points="715.363,205.731 713.731,197.526 705.69,199.19 707.329,207.392 	"/>
	<polygon fill="#005DA9" points="706.705,184.15 701.814,178.514 696.294,183.498 701.172,189.145 	"/>
	<polygon fill="#005DA9" points="688.813,170.138 682.512,167.986 680.407,174.414 686.696,176.569 	"/>
	<polygon fill="#005DA9" points="676.765,168.008 670.916,169.23 672.101,175.208 677.955,173.995 	"/>
	<polygon fill="#005DA9" points="665.516,172.296 661.482,175.926 665.049,180.048 669.076,176.409 	"/>
	<polygon fill="#005DA9" points="658.079,181.687 656.548,186.378 661.123,187.947 662.667,183.268 	"/>
</g>
<g opacity="0.5">
	<polygon fill="#005DA9" points="732.795,26.778 711.64,26.564 711.432,48.17 732.587,48.388 	"/>
	<polygon fill="#005DA9" points="646.755,44.925 630.174,54.482 639.532,71.412 656.113,61.861 	"/>
	<polygon fill="#005DA9" points="581.907,104.481 573.186,119.537 587.951,128.438 596.654,113.38 	"/>
	<polygon fill="#005DA9" points="563.582,158.581 563.424,174.329 578.852,174.49 578.996,158.741 	"/>
	<polygon fill="#005DA9" points="574.408,214.223 581.227,226.569 593.32,219.602 586.502,207.256 	"/>
	<polygon fill="#005DA9" points="610.909,256.339 621.666,262.833 628.031,251.846 617.268,245.355 	"/>
	<polygon fill="#005DA9" points="643.169,268.196 654.418,268.297 654.531,256.825 643.275,256.705 	"/>
	<polygon fill="#005DA9" points="676.525,261.813 685.354,256.73 680.375,247.721 671.559,252.81 	"/>
	<polygon fill="#005DA9" points="701.922,239.331 706.56,231.321 698.714,226.578 694.082,234.591 	"/>
	<polygon fill="#005DA9" points="709.844,217.173 709.925,208.813 701.727,208.725 701.65,217.091 	"/>
	<polygon fill="#005DA9" points="705.798,194.233 702.168,187.667 695.739,191.373 699.356,197.933 	"/>
	<polygon fill="#005DA9" points="691.171,176.724 685.448,173.267 682.07,179.1 687.78,182.559 	"/>
	<polygon fill="#005DA9" points="679.82,172.054 673.84,172.003 673.777,178.101 679.752,178.167 	"/>
	<polygon fill="#005DA9" points="667.936,173.834 663.26,176.55 665.894,181.321 670.582,178.621 	"/>
	<polygon fill="#005DA9" points="658.747,181.457 656.296,185.713 660.455,188.228 662.913,183.968 	"/>
</g>
<g opacity="0.5">
	<polygon fill="#005DA9" points="763.511,45.902 742.847,41.178 738.228,62.265 758.879,66.985 	"/>
	<polygon fill="#005DA9" points="675.648,45.284 657.48,51.088 663.152,69.65 681.327,63.843 	"/>
	<polygon fill="#005DA9" points="600.045,89.697 588.43,102.575 601.04,114.432 612.654,101.554 	"/>
	<polygon fill="#005DA9" points="571.056,138.698 567.69,154.068 582.739,157.519 586.104,142.129 	"/>
	<polygon fill="#005DA9" points="570.268,195.425 574.414,208.961 587.661,204.727 583.515,191.187 	"/>
	<polygon fill="#005DA9" points="597.348,244.397 606.535,253.043 614.999,243.653 605.805,235.02 	"/>
	<polygon fill="#005DA9" points="626.469,262.871 637.446,265.376 639.904,254.168 628.933,251.669 	"/>
	<polygon fill="#005DA9" points="660.404,263.741 670.065,260.663 667.04,250.791 657.386,253.866 	"/>
	<polygon fill="#005DA9" points="689.841,247.164 695.998,240.313 689.299,234.03 683.129,240.862 	"/>
	<polygon fill="#005DA9" points="702.117,227.199 703.907,219.035 695.903,217.21 694.113,225.378 	"/>
	<polygon fill="#005DA9" points="702.842,203.895 700.643,196.704 693.597,198.947 695.79,206.147 	"/>
	<polygon fill="#005DA9" points="692.116,183.64 687.231,179.046 682.738,184.037 687.623,188.634 	"/>
	<polygon fill="#005DA9" points="681.977,176.667 676.141,175.344 674.842,181.299 680.672,182.635 	"/>
	<polygon fill="#005DA9" points="669.996,175.882 664.866,177.53 666.467,182.767 671.609,181.119 	"/>
	<polygon fill="#005DA9" points="659.446,181.359 656.176,184.998 659.73,188.348 663.007,184.708 	"/>
</g>
<g opacity="0.5">
	<polygon fill="#005DA9" points="789.619,71.141 770.393,62.123 761.557,81.763 780.784,90.784 	"/>
	<polygon fill="#005DA9" points="703.825,51.8 684.869,53.606 686.633,72.972 705.596,71.176 	"/>
	<polygon fill="#005DA9" points="620.81,79.104 606.819,89.221 616.732,103.508 630.723,93.393 	"/>
	<polygon fill="#005DA9" points="582.431,120.851 575.99,135.163 590.006,141.745 596.452,127.427 	"/>
	<polygon fill="#005DA9" points="570.061,176.147 571.346,190.279 585.166,188.949 583.874,174.839 	"/>
	<polygon fill="#005DA9" points="586.521,229.827 593.749,240.235 603.939,232.861 596.717,222.441 	"/>
	<polygon fill="#005DA9" points="611.23,254.096 621.446,258.888 626.147,248.458 615.926,243.653 	"/>
	<polygon fill="#005DA9" points="644.233,262.184 654.311,261.229 653.371,250.942 643.295,251.89 	"/>
	<polygon fill="#005DA9" points="676.411,252.259 683.848,246.877 678.566,239.29 671.143,244.668 	"/>
	<polygon fill="#005DA9" points="692.5,235.348 695.929,227.741 688.474,224.25 685.052,231.85 	"/>
	<polygon fill="#005DA9" points="697.977,212.717 697.296,205.218 689.948,205.908 690.629,213.417 	"/>
	<polygon fill="#005DA9" points="691.637,190.623 687.806,185.102 682.379,189.016 686.217,194.536 	"/>
	<polygon fill="#005DA9" points="683.136,181.643 677.716,179.096 675.221,184.633 680.64,187.188 	"/>
	<polygon fill="#005DA9" points="671.591,178.306 666.233,178.825 666.726,184.286 672.076,183.785 	"/>
	<polygon fill="#005DA9" points="660.152,181.422 656.207,184.289 659.006,188.313 662.95,185.461 	"/>
</g>
<g opacity="0.5">
	<polygon fill="#005DA9" points="810,101.403 793.048,88.475 780.387,105.795 797.346,118.717 	"/>
	<polygon fill="#005DA9" points="730.054,64.19 711.147,61.909 708.91,81.221 727.811,83.499 	"/>
	<polygon fill="#005DA9" points="643.282,73.18 627.533,80.09 634.302,96.166 650.051,89.256 	"/>
	<polygon fill="#005DA9" points="597.222,105.811 587.995,118.443 600.347,127.862 609.579,115.239 	"/>
	<polygon fill="#005DA9" points="573.791,157.263 572.171,171.342 585.953,172.999 587.586,158.924 	"/>
	<polygon fill="#005DA9" points="578.92,213.253 583.861,224.99 595.331,219.942 590.402,208.221 	"/>
	<polygon fill="#005DA9" points="598.116,242.27 607.134,249.139 613.858,239.926 604.84,233.06 	"/>
	<polygon fill="#005DA9" points="628.737,257.218 638.789,258.425 639.986,248.169 629.929,246.943 	"/>
	<polygon fill="#005DA9" points="662.232,254.37 670.595,250.696 666.996,242.157 658.634,245.837 	"/>
	<polygon fill="#005DA9" points="681.434,241.271 686.337,234.563 679.764,229.556 674.854,236.261 	"/>
	<polygon fill="#005DA9" points="691.423,220.308 692.279,212.831 684.957,211.936 684.1,219.419 	"/>
	<polygon fill="#005DA9" points="689.733,197.35 687.112,191.111 681.012,193.79 683.627,200.016 	"/>
	<polygon fill="#005DA9" points="683.262,186.741 678.473,183.092 674.899,187.992 679.682,191.64 	"/>
	<polygon fill="#005DA9" points="672.649,181.025 667.305,180.388 666.669,185.836 672.013,186.479 	"/>
	<polygon fill="#005DA9" points="660.833,181.636 656.378,183.586 658.287,188.118 662.736,186.183 	"/>
</g>
</svg>
