<svg xmlns="http://www.w3.org/2000/svg" xmlns:xlink="http://www.w3.org/1999/xlink" viewBox="0 0 360 80"><defs><path id="a" d="M0 0 359 0 359 78 0 78z"/></defs><g fill="none" fill-rule="evenodd" transform="matrix(1 0 0 -1 1 79)"><path fill="#262626" d="M13.1041825 29.0801394C13.1041825 32.0696864 10.9201521 34.2439024 8.19011407 34.2439024 5.18707224 34.2439024 3.00304183 32.0696864 3.00304183 29.0801394 3.00304183 26.3623693 5.18707224 24.1881533 8.19011407 24.1881533 10.9201521 24.1881533 13.1041825 26.3623693 13.1041825 29.0801394M73.7110266 72.5644599C73.7110266 73.9233449 72.6190114 75.28223 71.2539924 75.28223 69.6159696 75.28223 68.5239544 73.9233449 68.5239544 72.5644599 68.5239544 71.2055749 69.6159696 69.8466899 71.2539924 69.8466899 72.6190114 69.8466899 73.7110266 71.2055749 73.7110266 72.5644599M73.7110266 29.6236934C73.7110266 30.9825784 72.6190114 32.3414634 71.2539924 32.3414634 69.6159696 32.3414634 68.5239544 30.9825784 68.5239544 29.6236934 68.5239544 28.2648084 69.6159696 26.9059233 71.2539924 26.9059233 72.6190114 26.9059233 73.7110266 28.2648084 73.7110266 29.6236934M36.0365019 50.8222997C36.0365019 54.6271777 33.0334601 57.6167247 29.4844106 57.6167247 25.9353612 57.6167247 22.9323194 54.6271777 22.9323194 50.8222997 22.9323194 47.0174216 25.9353612 44.0278746 29.4844106 44.0278746 33.0334601 44.0278746 36.0365019 47.0174216 36.0365019 50.8222997M58.1498099 29.0801394C58.1498099 33.7003484 54.3277567 37.5052265 49.9596958 37.5052265 45.591635 37.5052265 41.7695817 33.7003484 41.7695817 29.0801394 41.7695817 24.4599303 45.591635 20.6550523 49.9596958 20.6550523 54.3277567 20.6550523 58.1498099 24.4599303 58.1498099 29.0801394M80.8091255 50.8222997C80.8091255 56.2578397 76.4410646 60.8780488 70.9809886 60.8780488 65.5209125 60.8780488 61.1528517 56.2578397 61.1528517 50.8222997 61.1528517 45.3867596 65.5209125 40.7665505 70.9809886 40.7665505 76.4410646 40.7665505 80.8091255 45.3867596 80.8091255 50.8222997M118.211 60.606 116.027 60.606 111.113 46.746 110.294 44.571 109.748 42.125 108.929 44.571 108.383 46.474 103.468 60.606 101.011 60.606 108.383 40.223 110.567 40.223M131.041825 47.8327526 131.041825 50.0069686 130.768821 51.3658537 130.222814 52.7247387 129.403802 53.8118467 128.311787 54.3554007 127.219772 54.8989547 126.127757 55.4425087 125.035741 55.4425087 123.397719 55.1707317 122.578707 55.1707317 122.0327 54.6271777 120.667681 54.0836237 119.848669 52.9965157 119.029658 51.9094077 118.48365 50.5505226 118.210646 49.1916376 117.937643 47.5609756 118.210646 45.9303136 118.210646 44.8432056 118.48365 44.2996516 119.029658 42.6689895 119.302662 42.3972125 119.848669 41.8536585 120.667681 40.7665505 121.759696 40.4947735 123.124715 39.9512195 124.489734 39.9512195 125.854753 40.2229965 126.673764 40.2229965 127.219772 40.7665505 128.311787 41.3101045 129.403802 42.3972125 130.222814 43.4843206 130.768821 44.5714286 131.041825 45.6585366 131.041825 46.4738676 131.041825 47.8327526ZM129.403802 47.8327526 129.403802 46.4738676 128.857795 44.8432056 128.584791 44.0278746 128.038783 42.9407666 127.219772 42.3972125 126.673764 41.8536585 125.581749 41.5818815 124.762738 41.5818815 123.397719 41.5818815 122.578707 41.8536585 122.305703 42.1254355 122.0327 42.3972125 121.213688 42.9407666 120.667681 44.0278746 120.394677 45.1149826 120.121673 46.4738676 120.121673 47.8327526 120.121673 49.1916376 120.394677 50.2787456 120.667681 51.6376307 121.486692 52.1811847 122.0327 52.9965157 122.851711 53.5400697 123.670722 53.8118467 124.762738 54.0836237 125.854753 53.8118467 126.673764 53.5400697 127.219772 53.2682927 127.492776 52.9965157 128.038783 52.4529617 128.038783 52.1811847 128.584791 51.3658537 128.857795 50.8222997 129.130798 50.2787456 129.403802 49.1916376"/><path fill="#262626" fill-rule="nonzero" d="M135.137 40.223 137.048 40.223 137.048 62.237 135.137 62.237z"/><path fill="#262626" d="M152.609 40.223 146.33 48.376 152.336 55.171 149.879 55.171 144.146 48.376 144.146 62.237 142.235 62.237 142.235 40.223 144.146 40.223 144.146 48.376 150.152 40.223M164.075 44.571 164.075 45.387 163.802 46.202 163.256 46.746 162.983 47.289 162.437 47.561 161.618 48.105 160.253 48.376 158.888 48.92 158.342 49.192 157.796 49.463 157.25 49.735 156.704 50.279 156.704 50.551 156.704 51.366 156.704 51.909 156.704 52.181 156.977 52.725 157.523 53.268 158.069 53.54 158.342 53.812 159.161 54.084 159.98 54.084 161.618 53.812 162.983 53.54 163.256 55.171 161.618 55.443 160.253 55.443 158.888 55.443 158.069 55.171 156.704 54.627 156.704 54.355 156.158 54.084 155.339 53.54 155.066 52.725 154.793 52.181 154.793 51.094 154.793 50.279 155.066 49.463 155.339 48.648 155.885 48.376 156.431 48.105 156.977 47.561 158.342 47.017 159.98 46.746 161.072 46.202 161.345 45.93 161.618 45.659 161.618 45.387 161.891 44.843 162.164 44.3 161.891 43.756 161.618 42.941 161.345 42.669 161.072 42.397 160.526 42.125 159.98 41.854 159.161 41.582 158.342 41.582 156.704 41.582 155.612 41.854 155.066 42.125 155.066 40.223 156.431 39.951 158.069 39.951 159.434 39.951 160.526 40.223 161.345 40.767 162.437 41.31 162.983 42.125 163.529 42.669 164.075 43.756M188.373 55.171 186.462 55.171 183.459 45.387 182.913 43.484 182.64 42.125 181.275 45.659 178.271 55.171 176.087 55.171 173.084 45.387 171.992 42.125 171.173 45.387 168.443 55.171 166.259 55.171 170.9 40.223 173.084 40.223 176.087 49.463 176.906 53.268 177.998 50.551 181.275 40.223 183.459 40.223M218.403042 37.5052265 218.403042 38.5923345 218.130038 39.4076655 217.58403 40.2229965 217.038023 40.7665505 216.219011 41.0383275 215.673004 41.5818815 214.580989 41.8536585 213.488973 41.8536585 210.485932 41.8536585 209.393916 41.8536585 208.301901 42.1254355 208.028897 42.6689895 207.755894 42.6689895 207.755894 43.2125436 207.755894 43.7560976 208.028897 44.0278746 208.301901 44.5714286 208.847909 44.5714286 209.939924 44.5714286 211.031939 44.5714286 212.669962 44.5714286 213.21597 44.5714286 213.761977 44.8432056 214.307985 45.1149826 214.853992 45.3867596 215.4 45.6585366 215.946008 46.2020906 215.946008 46.4738676 216.492015 46.7456446 217.038023 47.8327526 217.311027 48.9198606 217.311027 50.2787456 217.311027 51.0940767 217.038023 52.1811847 216.492015 52.9965157 215.946008 53.8118467 218.676046 53.8118467 218.676046 55.1707317 213.761977 55.1707317 212.669962 55.4425087 211.304943 55.4425087 209.939924 55.4425087 209.66692 55.1707317 208.847909 54.8989547 208.301901 54.6271777 207.755894 54.3554007 206.936882 53.8118467 206.663878 53.2682927 206.117871 52.7247387 205.571863 51.9094077 205.298859 50.8222997 205.298859 49.7351916 205.298859 48.3763066 205.844867 47.0174216 206.117871 46.4738676 206.390875 46.2020906 206.936882 45.6585366 207.48289 45.1149826 206.936882 44.5714286 206.390875 44.2996516 205.844867 43.4843206 205.844867 42.6689895 205.844867 42.1254355 206.117871 41.5818815 206.663878 41.0383275 207.209886 40.7665505 206.936882 40.4947735 206.390875 39.9512195 205.298859 38.8641115 205.025856 38.0487805 204.752852 37.2334495 204.752852 36.6898955 204.752852 35.6027875 205.298859 34.7874564 205.298859 34.2439024 205.571863 33.9721254 206.390875 33.1567944 207.209886 32.8850174 208.301901 32.6132404 209.393916 32.3414634 210.758935 32.0696864 212.396958 32.3414634 213.761977 32.6132404 215.126996 33.1567944 216.219011 33.7003484 217.311027 34.5156794 217.58403 35.3310105 218.130038 35.8745645 218.130038 36.6898955 218.403042 37.5052265ZM215.673004 50.0069686 215.4 48.9198606 215.126996 48.3763066 214.853992 47.5609756 214.307985 46.7456446 213.761977 46.4738676 212.942966 46.2020906 212.123954 45.9303136 211.304943 45.9303136 210.212928 45.9303136 209.66692 46.2020906 208.847909 46.4738676 208.301901 46.7456446 207.755894 47.5609756 207.48289 48.1045296 207.209886 48.9198606 206.936882 50.0069686 207.209886 50.5505226 207.48289 51.6376307 207.755894 52.1811847 208.301901 52.7247387 208.847909 53.2682927 209.66692 53.8118467 210.485932 54.0836237 211.304943 54.0836237 212.396958 54.0836237 212.942966 53.8118467 213.761977 53.2682927 214.307985 52.7247387 214.853992 52.1811847 215.126996 51.6376307 215.4 50.8222997 215.673004 50.0069686ZM216.492015 37.2334495 216.219011 36.6898955 215.946008 35.8745645 215.673004 35.3310105 215.126996 34.7874564 214.307985 34.5156794 213.21597 33.9721254 212.396958 33.9721254 211.304943 33.7003484 209.393916 33.9721254 208.301901 34.2439024 208.028897 34.7874564 207.209886 35.0592334 206.936882 35.6027875 206.663878 36.1463415 206.663878 36.9616725 206.663878 37.5052265 206.936882 37.7770035 207.209886 38.8641115 207.48289 39.1358885 208.028897 39.4076655 208.847909 40.2229965 212.942966 40.2229965 213.761977 40.2229965 214.307985 39.9512195 215.126996 39.6794425 215.673004 39.4076655 215.946008 38.8641115 216.219011 38.5923345 216.492015 38.0487805M232.872243 49.4634146 232.872243 50.5505226 232.59924 51.6376307 232.326236 52.7247387 231.780228 53.5400697 230.961217 54.3554007 229.869202 54.8989547 229.596198 55.1707317 228.777186 55.4425087 227.412167 55.4425087 226.593156 55.4425087 226.047148 55.1707317 224.955133 54.8989547 224.136122 54.3554007 223.590114 54.0836237 222.771103 53.2682927 222.225095 52.4529617 221.952091 52.1811847 221.952091 51.3658537 221.679087 50.5505226 221.13308 49.1916376 221.13308 47.5609756 221.13308 45.9303136 221.406084 44.8432056 221.679087 44.2996516 221.952091 43.4843206 221.952091 42.6689895 222.225095 42.3972125 222.771103 41.8536585 223.590114 40.7665505 224.955133 40.4947735 225.501141 40.2229965 226.320152 39.9512195 227.958175 39.9512195 229.05019 39.9512195 230.415209 40.2229965 231.507224 40.4947735 232.59924 40.7665505 232.326236 42.6689895 231.234221 42.1254355 230.415209 41.8536585 229.323194 41.5818815 227.958175 41.5818815 226.86616 41.5818815 225.774144 41.8536585 224.955133 42.3972125 224.682129 42.6689895 224.136122 42.6689895 223.863118 43.2125436 223.590114 43.7560976 223.590114 44.2996516 223.31711 44.5714286 223.31711 46.2020906 223.044106 47.8327526 232.872243 47.8327526 232.872243 49.4634146ZM230.961217 49.1916376 223.31711 49.1916376 223.590114 50.2787456 223.590114 51.0940767 224.136122 51.9094077 224.682129 52.4529617 224.955133 53.2682927 225.774144 53.5400697 226.593156 54.0836237 227.412167 54.0836237 227.958175 54.0836237 228.777186 53.5400697 229.596198 52.9965157 229.596198 52.7247387 230.142205 52.4529617 230.415209 51.9094077 230.961217 51.0940767 230.961217 50.2787456M248.706 40.223 248.706 50.551 248.706 51.638 248.433 52.453 248.16 53.268 247.614 54.084 247.341 54.627 246.249 55.171 245.43 55.443 244.338 55.443 243.246 55.443 242.427 55.171 241.608 54.899 241.062 54.355 240.243 54.084 239.97 53.268 239.424 52.453 238.878 51.638 238.878 52.453 239.151 53.54 239.151 55.171 237.24 55.171 237.24 40.223 239.151 40.223 239.151 47.289 239.151 48.648 239.424 50.007 239.97 51.094 240.516 52.181 241.335 52.725 241.881 53.54 242.427 53.812 242.973 53.812 243.792 54.084 244.611 53.812 245.43 53.812 245.976 53.268 246.249 52.725 246.522 52.181 246.795 51.638 246.795 50.822 246.795 50.007 246.795 40.223M73.7110266 7.6097561C73.7110266 8.96864111 72.6190114 10.3275261 71.2539924 10.3275261 69.6159696 10.3275261 68.5239544 8.96864111 68.5239544 7.6097561 68.5239544 6.25087108 69.6159696 4.89198606 71.2539924 4.89198606 72.6190114 4.89198606 73.7110266 6.25087108 73.7110266 7.6097561M200.930798 40.2229965 199.292776 40.2229965 199.292776 41.8536585 199.292776 43.4843206 199.292776 42.6689895 199.019772 42.3972125 197.927757 41.0383275 197.381749 40.7665505 196.835741 40.4947735 195.470722 39.9512195 194.105703 39.9512195 193.286692 39.9512195 192.467681 40.2229965 191.648669 40.4947735 191.102662 40.7665505 190.556654 41.3101045 190.28365 42.1254355 190.28365 42.6689895 190.010646 43.4843206 190.28365 44.5714286 190.556654 45.9303136 190.829658 46.4738676 191.375665 46.7456446 192.194677 47.8327526 193.013688 48.1045296 193.286692 48.3763066 194.378707 48.6480836 194.924715 48.9198606 196.01673 49.1916376 196.562738 49.1916376 198.746768 49.4634146 199.292776 49.4634146 199.292776 50.2787456 199.019772 50.8222997 199.019772 51.9094077 198.746768 52.1811847 198.20076 52.9965157 197.654753 53.2682927 197.381749 53.8118467 196.289734 53.8118467 195.743726 54.0836237 194.651711 53.8118467 193.286692 53.5400697 192.194677 53.2682927 191.102662 52.4529617 190.829658 54.0836237 191.921673 54.6271777 193.286692 55.1707317 194.651711 55.4425087 196.01673 55.4425087 197.381749 55.4425087 198.20076 55.1707317 199.292776 54.6271777 199.838783 54.0836237 200.384791 53.2682927 200.657795 52.4529617 200.657795 51.6376307 200.930798 50.5505226 200.930798 44.8432056 200.930798 40.2229965ZM199.292776 47.0174216 199.019772 46.2020906 198.746768 45.1149826 198.20076 44.2996516 197.654753 43.2125436 197.108745 42.6689895 196.835741 42.3972125 196.289734 42.1254355 195.470722 41.5818815 194.651711 41.5818815 193.8327 41.5818815 193.286692 41.5818815 192.740684 42.1254355 192.194677 42.6689895 191.921673 43.2125436 191.921673 44.0278746 191.921673 44.5714286 192.194677 45.1149826 192.740684 45.9303136 193.286692 46.4738676 194.378707 47.0174216 195.470722 47.5609756 197.108745 47.8327526 199.292776 47.8327526M265.36 46.474 265.087 47.561 264.814 48.376 264.268 49.192 263.995 50.007 263.176 50.551 262.63 51.094 261.265 51.909 259.627 52.453 258.262 53.268 257.716 53.54 257.17 54.084 256.897 54.355 256.897 55.171 256.897 55.714 256.897 55.986 257.443 56.53 257.716 56.801 258.262 57.345 258.808 57.617 259.627 57.617 260.173 57.617 262.084 57.617 263.722 57.073 263.995 60.606 262.084 60.878 260.446 60.878 258.535 60.878 257.989 60.606 257.17 60.334 256.624 60.063 255.805 59.791 254.986 59.247 253.894 58.16 253.348 57.345 253.075 55.986 252.802 54.627 252.802 53.54 253.348 52.453 253.621 51.909 254.167 51.094 254.713 50.551 255.259 50.007 256.897 49.192 258.535 48.648 259.9 48.105 260.446 47.561 260.719 47.017 261.265 46.474 261.265 45.93 261.265 45.115 260.992 44.571 260.446 44.3 260.173 44.028 259.627 43.484 259.081 43.484 257.716 43.213 256.624 43.213 255.532 43.484 254.44 43.756 253.621 44.028 253.348 40.495 254.167 40.223 255.259 39.951 257.443 39.951 259.081 39.951 260.719 40.495 262.084 40.767 262.63 41.31 263.176 41.582 263.995 42.669 264.541 43.756 265.087 45.115 265.087 45.93M276.28 40.223 276.28 43.213 275.461 43.213 274.642 42.941 273.55 43.213 273.55 43.484 273.277 43.756 273.004 44.028 272.731 44.571 272.731 45.659 272.731 52.181 276.28 52.181 276.28 55.171 272.731 55.171 272.731 60.878 268.909 59.791 268.909 55.171 266.452 55.171 266.452 52.181 268.909 52.181 268.909 44.571 268.909 43.213 268.909 42.669 269.182 42.397 269.455 41.582 270.001 40.767 270.547 40.495 271.093 40.223 271.912 39.951 273.277 39.951 274.915 39.951M283.650951 59.5191638 283.650951 59.7909408 283.377947 60.3344948 283.104943 60.8780488 282.831939 61.1498258 282.558935 61.4216028 282.285932 61.6933798 281.193916 61.6933798 280.374905 61.6933798 279.555894 61.1498258 279.28289 60.3344948 279.009886 59.5191638 279.009886 58.9756098 279.28289 58.4320557 279.28289 58.1602787 279.555894 57.8885017 280.374905 57.3449477 281.193916 57.0731707 282.285932 57.3449477 282.558935 57.6167247 282.831939 57.8885017 283.104943 58.1602787 283.377947 58.4320557 283.650951 59.5191638ZM283.104943 40.2229965 283.104943 55.1707317 279.555894 55.1707317 279.555894 40.2229965M296.209 62.237 295.117 62.509 294.025 62.509 292.66 62.237 291.568 61.965 290.203 61.693 289.657 60.878 288.838 60.063 288.565 58.976 288.292 57.889 288.292 56.258 288.292 55.171 285.562 55.171 285.562 52.181 288.292 52.181 288.292 40.223 291.841 40.223 291.841 52.181 295.39 52.181 295.39 55.171 291.841 55.171 291.841 56.258 292.114 57.889 292.387 58.704 292.933 58.976 293.206 59.247 293.752 59.247 294.298 59.519 295.117 59.247 296.209 58.976"/><path fill="#262626" d="M305.218 40.223 305.218 43.213 304.126 43.213 303.307 42.941 302.215 43.213 302.215 43.484 301.942 43.756 301.669 44.028 301.669 44.571 301.396 45.659 301.396 52.181 305.218 52.181 305.218 55.171 301.396 55.171 301.396 60.878 297.574 59.791 297.574 55.171 295.117 55.171 295.117 52.181 297.574 52.181 297.574 44.571 297.574 43.213 297.847 42.669 297.847 42.397 298.12 41.582 298.666 40.767 299.212 40.495 300.031 40.223 300.85 39.951 301.942 39.951 303.58 39.951M320.779 40.223 320.779 55.171 316.957 55.171 316.957 48.105 316.957 47.017 316.684 46.202 316.411 45.115 315.865 44.571 315.592 44.028 315.046 43.484 314.5 43.213 313.681 42.941 313.135 42.941 312.862 43.213 312.316 43.756 311.77 44.571 311.77 45.659 311.77 55.171 308.221 55.171 308.221 44.571 308.221 43.756 308.221 42.669 308.494 41.854 309.04 41.038 309.586 40.767 310.405 40.223 311.224 39.951 312.589 39.951 313.135 39.951 314.227 39.951 314.773 40.495 315.592 40.767 315.865 41.038 316.684 41.582 317.23 42.397 317.503 42.669 317.503 41.31 317.23 40.223M337.433 40.223 337.433 50.551 337.433 51.638 337.16 52.453 337.16 53.54 336.614 54.084 336.068 54.627 335.249 55.171 334.157 55.443 333.065 55.443 332.519 55.443 331.427 55.443 330.881 54.899 330.062 54.627 329.516 54.084 328.97 53.812 328.424 52.997 328.151 52.453 328.151 54.084 328.424 55.171 324.875 55.171 324.875 40.223 328.424 40.223 328.424 47.289 328.697 48.376 328.97 49.192 329.243 50.279 329.516 50.822 330.062 51.366 330.608 51.909 331.154 52.181 331.973 52.181 332.519 52.181 332.792 52.181 333.338 51.638 333.884 50.822 333.884 49.735 333.884 40.223M354.904943 38.5923345 354.904943 39.4076655 354.631939 40.4947735 354.085932 41.0383275 353.812928 41.8536585 352.720913 42.3972125 352.174905 42.6689895 350.809886 42.6689895 349.990875 42.6689895 347.806844 42.6689895 346.441825 42.9407666 346.168821 42.9407666 345.895817 42.9407666 345.622814 43.2125436 345.34981 43.7560976 345.622814 44.5714286 346.168821 44.5714286 346.714829 44.5714286 347.53384 44.5714286 348.898859 44.5714286 350.263878 45.1149826 351.355894 45.3867596 352.174905 46.2020906 352.993916 47.0174216 353.539924 47.8327526 353.812928 48.9198606 353.812928 50.2787456 353.812928 50.8222997 353.812928 51.3658537 353.539924 51.9094077 352.993916 52.1811847 355.177947 52.1811847 355.177947 55.1707317 350.263878 55.1707317 348.898859 55.4425087 347.806844 55.4425087 346.168821 55.4425087 345.34981 55.1707317 344.530798 55.1707317 343.438783 54.3554007 342.619772 53.8118467 342.346768 53.2682927 341.80076 52.9965157 341.527757 52.4529617 341.527757 51.9094077 340.981749 50.8222997 340.981749 49.7351916 341.254753 48.3763066 341.527757 47.0174216 341.80076 46.4738676 342.073764 46.2020906 342.619772 45.9303136 343.165779 45.3867596 342.346768 45.1149826 341.80076 44.5714286 341.527757 44.0278746 341.527757 43.7560976 341.527757 42.6689895 341.527757 42.1254355 341.80076 41.5818815 342.073764 40.7665505 342.892776 40.7665505 341.80076 39.9512195 341.527757 39.4076655 341.254753 39.1358885 340.981749 38.5923345 340.708745 38.0487805 340.435741 36.9616725 340.708745 35.8745645 340.981749 35.0592334 341.254753 34.7874564 341.527757 34.2439024 342.346768 33.4285714 343.165779 33.1567944 344.257795 32.8850174 345.622814 32.6132404 346.714829 32.6132404 348.625856 32.6132404 349.444867 32.8850174 350.263878 33.1567944 351.628897 33.4285714 352.720913 34.2439024 353.812928 35.0592334 353.812928 35.6027875 354.358935 36.1463415 354.631939 36.6898955 354.904943 37.2334495 354.904943 37.7770035 354.904943 38.5923345ZM350.263878 50.0069686 350.263878 49.4634146 349.990875 48.6480836 349.717871 48.3763066 349.444867 48.1045296 349.171863 47.8327526 348.625856 47.5609756 347.53384 47.2891986 346.714829 47.2891986 346.168821 47.5609756 345.895817 47.8327526 345.34981 48.1045296 344.803802 48.3763066 344.530798 48.9198606 344.530798 49.4634146 344.530798 50.0069686 344.530798 50.5505226 344.530798 51.0940767 344.803802 51.6376307 345.34981 51.9094077 345.895817 52.1811847 346.168821 52.4529617 346.714829 52.4529617 347.53384 52.7247387 348.079848 52.4529617 348.625856 52.4529617 349.171863 52.1811847 349.444867 52.1811847 349.990875 51.0940767 350.263878 50.5505226 350.263878 50.0069686ZM351.08289 38.0487805 351.08289 37.2334495 350.809886 36.9616725 350.809886 36.6898955 350.263878 36.1463415 349.717871 35.8745645 349.171863 35.6027875 348.352852 35.3310105 347.53384 35.3310105 346.714829 35.3310105 346.168821 35.6027875 345.076806 36.1463415 344.803802 36.4181185 344.530798 36.9616725 344.257795 37.5052265 344.530798 38.3205575 344.530798 38.8641115 345.076806 39.4076655 345.622814 39.9512195 346.168821 39.9512195 348.898859 39.9512195 349.990875 39.6794425 350.809886 39.1358885 350.809886 38.8641115 351.08289 38.8641115 351.08289 38.3205575M10.9201521 72.5644599C10.9201521 73.9233449 9.55513308 75.28223 8.19011407 75.28223 6.55209125 75.28223 5.18707224 73.9233449 5.18707224 72.5644599 5.18707224 71.2055749 6.55209125 69.8466899 8.19011407 69.8466899 9.55513308 69.8466899 10.9201521 71.2055749 10.9201521 72.5644599M31.6684411 72.5644599C31.6684411 73.9233449 30.3034221 75.28223 28.938403 75.28223 27.573384 75.28223 26.208365 73.9233449 26.208365 72.5644599 26.208365 71.2055749 27.573384 69.8466899 28.938403 69.8466899 30.3034221 69.8466899 31.6684411 71.2055749 31.6684411 72.5644599M52.6897338 72.5644599C52.6897338 73.9233449 51.5977186 75.28223 50.2326996 75.28223 48.5946768 75.28223 47.5026616 73.9233449 47.5026616 72.5644599 47.5026616 71.2055749 48.5946768 69.8466899 50.2326996 69.8466899 51.5977186 69.8466899 52.6897338 71.2055749 52.6897338 72.5644599M10.9201521 50.8222997C10.9201521 52.1811847 9.55513308 53.5400697 8.19011407 53.5400697 6.55209125 53.5400697 5.18707224 52.1811847 5.18707224 50.8222997 5.18707224 49.4634146 6.55209125 48.1045296 8.19011407 48.1045296 9.55513308 48.1045296 10.9201521 49.4634146 10.9201521 50.8222997M52.6897338 50.8222997C52.6897338 52.1811847 51.5977186 53.5400697 50.2326996 53.5400697 48.5946768 53.5400697 47.5026616 52.1811847 47.5026616 50.8222997 47.5026616 49.4634146 48.5946768 48.1045296 50.2326996 48.1045296 51.5977186 48.1045296 52.6897338 49.4634146 52.6897338 50.8222997M31.6684411 29.6236934C31.6684411 30.9825784 30.3034221 32.3414634 28.938403 32.3414634 27.573384 32.3414634 26.208365 30.9825784 26.208365 29.6236934 26.208365 28.2648084 27.573384 26.9059233 28.938403 26.9059233 30.3034221 26.9059233 31.6684411 28.2648084 31.6684411 29.6236934M10.9201521 7.6097561C10.9201521 8.96864111 9.55513308 10.3275261 8.19011407 10.3275261 6.55209125 10.3275261 5.18707224 8.96864111 5.18707224 7.6097561 5.18707224 6.25087108 6.55209125 4.89198606 8.19011407 4.89198606 9.55513308 4.89198606 10.9201521 6.25087108 10.9201521 7.6097561M31.6684411 7.6097561C31.6684411 8.96864111 30.3034221 10.3275261 28.938403 10.3275261 27.573384 10.3275261 26.208365 8.96864111 26.208365 7.6097561 26.208365 6.25087108 27.573384 4.89198606 28.938403 4.89198606 30.3034221 4.89198606 31.6684411 6.25087108 31.6684411 7.6097561M52.6897338 7.6097561C52.6897338 8.96864111 51.5977186 10.3275261 50.2326996 10.3275261 48.5946768 10.3275261 47.5026616 8.96864111 47.5026616 7.6097561 47.5026616 6.25087108 48.5946768 4.89198606 50.2326996 4.89198606 51.5977186 4.89198606 52.6897338 6.25087108 52.6897338 7.6097561"/><mask id="b" fill="#fff"><use xlink:href="#a"/></mask><g mask="url(#b)"><path d="M179.091 77.456 0 77.456 0 0 179.091 0 358.455 0 358.455 77.456z" transform="matrix(-1 0 0 1 358.73 .273)"/></g></g></svg>
