<?xml version="1.0" encoding="UTF-8" ?>
<!DOCTYPE svg PUBLIC "-//W3C//DTD SVG 1.1//EN" "http://www.w3.org/Graphics/SVG/1.1/DTD/svg11.dtd">
<svg width="552pt" height="552pt" viewBox="0 0 552 552" version="1.1" xmlns="http://www.w3.org/2000/svg">
<g id="#336699ff">
<path fill="#336699" opacity="1.00" d=" M 0.00 0.00 L 552.00 0.00 L 552.00 333.40 C 493.66 275.27 435.51 216.96 377.26 158.74 C 374.39 156.19 372.22 152.33 368.22 151.47 C 358.09 137.79 344.40 126.04 327.82 121.19 C 303.47 114.06 276.26 120.38 256.31 135.69 C 251.21 131.24 247.01 125.84 241.49 121.87 C 240.54 120.46 239.82 118.47 237.89 118.25 C 233.58 118.25 229.55 120.00 225.62 121.57 C 208.85 128.83 192.14 136.22 175.36 143.47 C 173.65 144.29 171.62 144.77 170.33 146.26 C 169.70 148.78 169.90 151.45 170.16 154.01 C 171.26 156.08 173.53 157.11 175.42 158.32 C 176.50 161.94 179.82 164.11 182.30 166.73 C 187.75 171.87 192.63 177.60 198.47 182.33 C 198.79 185.88 198.66 189.45 198.68 193.02 C 198.67 257.36 198.68 321.70 198.67 386.04 C 198.31 393.42 198.63 400.85 197.68 408.19 C 197.06 412.19 195.30 417.06 190.91 418.17 C 184.04 419.37 177.01 418.11 170.11 418.90 C 167.89 423.60 169.23 429.28 169.35 434.35 C 169.75 434.67 170.55 435.32 170.95 435.64 C 174.57 440.46 179.13 444.41 183.32 448.70 C 217.60 483.21 252.27 517.34 286.39 552.00 L 0.00 552.00 L 0.00 0.00 Z" />
</g>
<g id="#ffffffff">
<path fill="#ffffff" opacity="1.00" d=" M 225.62 121.57 C 229.55 120.00 233.58 118.25 237.89 118.25 C 239.82 118.47 240.54 120.46 241.49 121.87 C 242.74 130.03 243.81 138.21 245.05 146.37 C 248.64 142.65 252.18 138.84 256.31 135.69 C 276.26 120.38 303.47 114.06 327.82 121.19 C 344.40 126.04 358.09 137.79 368.22 151.47 C 372.53 157.53 376.22 164.07 378.58 171.14 C 383.12 184.52 383.75 198.88 383.14 212.88 C 381.91 238.66 373.17 264.51 356.25 284.26 C 341.22 302.11 319.35 314.20 296.08 316.70 C 279.07 318.52 261.51 316.12 245.75 309.40 C 246.18 332.61 246.49 355.82 246.63 379.03 C 247.11 389.73 246.14 400.62 248.63 411.14 C 249.34 414.37 251.45 417.86 255.06 418.23 C 262.02 419.06 269.05 418.47 276.04 418.70 C 277.35 418.56 279.05 419.57 278.94 421.04 C 279.04 425.32 279.16 429.62 278.86 433.90 C 277.81 436.05 274.95 435.52 272.99 435.59 C 239.01 433.71 204.93 434.07 170.95 435.64 C 170.55 435.32 169.75 434.67 169.35 434.35 C 169.23 429.28 167.89 423.60 170.11 418.90 C 177.01 418.11 184.04 419.37 190.91 418.17 C 195.30 417.06 197.06 412.19 197.68 408.19 C 198.63 400.85 198.31 393.42 198.67 386.04 C 198.68 321.70 198.67 257.36 198.68 193.02 C 198.66 189.45 198.79 185.88 198.47 182.33 C 198.07 176.48 195.41 170.79 190.65 167.25 C 185.99 163.62 180.57 161.16 175.42 158.32 C 173.53 157.11 171.26 156.08 170.16 154.01 C 169.90 151.45 169.70 148.78 170.33 146.26 C 171.62 144.77 173.65 144.29 175.36 143.47 C 192.14 136.22 208.85 128.83 225.62 121.57 M 245.75 164.62 C 245.88 197.73 245.76 230.85 245.81 263.97 C 245.94 271.49 247.49 279.52 252.75 285.22 C 264.81 296.99 282.71 301.12 299.08 298.86 C 312.34 296.64 322.92 286.48 328.49 274.62 C 336.41 257.69 337.58 238.47 336.21 220.07 C 334.99 205.01 332.04 189.91 325.88 176.04 C 321.65 166.68 315.70 157.79 307.22 151.79 C 299.44 146.23 289.58 143.79 280.09 144.83 C 266.57 146.26 253.63 153.47 245.75 164.62 Z" />
</g>
<g id="#2e5c89ff">
<path fill="#2e5c89" opacity="1.00" d=" M 241.49 121.87 C 247.01 125.84 251.21 131.24 256.31 135.69 C 252.18 138.84 248.64 142.65 245.05 146.37 C 243.81 138.21 242.74 130.03 241.49 121.87 Z" />
<path fill="#2e5c89" opacity="1.00" d=" M 245.75 164.62 C 253.63 153.47 266.57 146.26 280.09 144.83 C 289.58 143.79 299.44 146.23 307.22 151.79 C 315.70 157.79 321.65 166.68 325.88 176.04 C 332.04 189.91 334.99 205.01 336.21 220.07 C 337.58 238.47 336.41 257.69 328.49 274.62 C 322.92 286.48 312.34 296.64 299.08 298.86 C 282.71 301.12 264.81 296.99 252.75 285.22 C 247.49 279.52 245.94 271.49 245.81 263.97 C 245.76 230.85 245.88 197.73 245.75 164.62 Z" />
<path fill="#2e5c89" opacity="1.00" d=" M 368.22 151.47 C 372.22 152.33 374.39 156.19 377.26 158.74 C 435.51 216.96 493.66 275.27 552.00 333.40 L 552.00 552.00 L 286.39 552.00 C 252.27 517.34 217.60 483.21 183.32 448.70 C 179.13 444.41 174.57 440.46 170.95 435.64 C 204.93 434.07 239.01 433.71 272.99 435.59 C 274.95 435.52 277.81 436.05 278.86 433.90 C 279.16 429.62 279.04 425.32 278.94 421.04 C 279.05 419.57 277.35 418.56 276.04 418.70 C 269.05 418.47 262.02 419.06 255.06 418.23 C 251.45 417.86 249.34 414.37 248.63 411.14 C 246.14 400.62 247.11 389.73 246.63 379.03 C 246.49 355.82 246.18 332.61 245.75 309.40 C 261.51 316.12 279.07 318.52 296.08 316.70 C 319.35 314.20 341.22 302.11 356.25 284.26 C 373.17 264.51 381.91 238.66 383.14 212.88 C 383.75 198.88 383.12 184.52 378.58 171.14 C 376.22 164.07 372.53 157.53 368.22 151.47 Z" />
<path fill="#2e5c89" opacity="1.00" d=" M 182.30 166.73 C 179.82 164.11 176.50 161.94 175.42 158.32 C 180.57 161.16 185.99 163.62 190.65 167.25 C 195.41 170.79 198.07 176.48 198.47 182.33 C 192.63 177.60 187.75 171.87 182.30 166.73 Z" />
</g>
</svg>
