<?xml version="1.0" encoding="UTF-8" standalone="no"?>
<!-- Created with Inkscape (http://www.inkscape.org/) -->
<svg
   xmlns:svg="http://www.w3.org/2000/svg"
   xmlns="http://www.w3.org/2000/svg"
   version="1.0"
   width="708"
   height="708"
   id="svg2428"
   xml:space="preserve"><defs
     id="defs2431"><clipPath
       id="clipPath2445"><path
         d="M 7.15234,1724.3 L 1727.45,1724.3 L 1727.45,3.74219 L 7.15234,3.74219 L 7.15234,1724.3 z"
         id="path2447" /></clipPath></defs><g
     transform="matrix(1.25,0,0,-1.25,-0.8940425,215.5325)"
     id="g2437"><g
       transform="matrix(0.3292453,0,0,0.3291956,-1.6396407,-395.20591)"
       id="g2439"><g
         id="g2441"><g
           clip-path="url(#clipPath2445)"
           id="g2443"><path
             d="M 16.668,13.3594 L 1717.698,13.3594 L 1717.698,1714.2594 L 16.668,1714.2594 L 16.668,13.3594 z"
             id="path2449"
             style="fill:#ffffff;fill-opacity:1;fill-rule:nonzero;stroke:none" /><path
             d="M 158.316,663.461 C 269.023,663.461 358.746,753.199 358.746,863.906 C 358.746,974.598 269.023,1064.34 158.316,1064.34 C 47.5938,1064.34 -42.1406,974.598 -42.1406,863.906 C -42.1406,753.199 47.5938,663.461 158.316,663.461"
             id="path2451"
             style="fill:#7b7979;fill-opacity:1;fill-rule:nonzero;stroke:none" /><path
             d="M 158.316,663.461 C 269.023,663.461 358.746,753.199 358.746,863.906 C 358.746,974.598 269.023,1064.34 158.316,1064.34 C 47.5938,1064.34 -42.1406,974.598 -42.1406,863.906 C -42.1406,753.199 47.5938,663.461 158.316,663.461 z"
             id="path2453"
             style="fill:none;stroke:#7b7979;stroke-width:10;stroke-linecap:butt;stroke-linejoin:miter;stroke-miterlimit:3.86370993;stroke-dasharray:none;stroke-opacity:1" /><path
             d="M -76.3906,-611.336 L 391.117,-611.336 L 391.117,296.898 L 441.148,296.898 L 441.148,-611.336 L 441.285,-610.848 C 548.363,-588.32 628.734,-493.312 628.734,-379.566 L 628.734,294.301 C 628.734,424.82 522.926,530.633 392.406,530.633 L -77.0469,530.633 C -207.594,530.633 -313.391,424.82 -313.391,294.301 L -313.391,-379.566 C -313.391,-493.762 -232.371,-589.02 -124.688,-611.098 L -125.793,-611.953 L -125.793,296.898 L -75.7617,296.898 L -75.7617,-611.953"
             id="path2455"
             style="fill:#7b7979;fill-opacity:1;fill-rule:nonzero;stroke:none" /><path
             d="M -76.3906,-611.336 L 391.117,-611.336 L 391.117,296.898 L 441.148,296.898 L 441.148,-611.336 L 441.285,-610.848 C 548.363,-588.32 628.734,-493.312 628.734,-379.566 L 628.734,294.301 C 628.734,424.82 522.926,530.633 392.406,530.633 L -77.0469,530.633 C -207.594,530.633 -313.391,424.82 -313.391,294.301 L -313.391,-379.566 C -313.391,-493.762 -232.371,-589.02 -124.688,-611.098 L -125.793,-611.953 L -125.793,296.898 L -75.7617,296.898 L -75.7617,-611.953"
             id="path2457"
             style="fill:none;stroke:#7b7979;stroke-width:10;stroke-linecap:butt;stroke-linejoin:miter;stroke-miterlimit:3.86370993;stroke-dasharray:none;stroke-opacity:1" /><path
             d="M 1575.64,663.461 C 1686.35,663.461 1776.07,753.199 1776.07,863.906 C 1776.07,974.598 1686.35,1064.34 1575.64,1064.34 C 1464.92,1064.34 1375.18,974.598 1375.18,863.906 C 1375.18,753.199 1464.92,663.461 1575.64,663.461"
             id="path2459"
             style="fill:#7b7979;fill-opacity:1;fill-rule:nonzero;stroke:none" /><path
             d="M 1575.64,663.461 C 1686.35,663.461 1776.07,753.199 1776.07,863.906 C 1776.07,974.598 1686.35,1064.34 1575.64,1064.34 C 1464.92,1064.34 1375.18,974.598 1375.18,863.906 C 1375.18,753.199 1464.92,663.461 1575.64,663.461 z"
             id="path2461"
             style="fill:none;stroke:#7b7979;stroke-width:10;stroke-linecap:butt;stroke-linejoin:miter;stroke-miterlimit:3.86370993;stroke-dasharray:none;stroke-opacity:1" /><path
             d="M 1340.93,-611.336 L 1808.44,-611.336 L 1808.44,296.898 L 1858.47,296.898 L 1858.47,-611.336 L 1858.61,-610.848 C 1965.68,-588.32 2046.06,-493.312 2046.06,-379.566 L 2046.06,294.301 C 2046.06,424.82 1940.25,530.633 1809.73,530.633 L 1340.27,530.633 C 1209.73,530.633 1103.93,424.82 1103.93,294.301 L 1103.93,-379.566 C 1103.93,-493.762 1184.95,-589.02 1292.64,-611.098 L 1291.53,-611.953 L 1291.53,296.898 L 1341.56,296.898 L 1341.56,-611.953"
             id="path2463"
             style="fill:#7b7979;fill-opacity:1;fill-rule:nonzero;stroke:none" /><path
             d="M 1340.93,-611.336 L 1808.44,-611.336 L 1808.44,296.898 L 1858.47,296.898 L 1858.47,-611.336 L 1858.61,-610.848 C 1965.68,-588.32 2046.06,-493.312 2046.06,-379.566 L 2046.06,294.301 C 2046.06,424.82 1940.25,530.633 1809.73,530.633 L 1340.27,530.633 C 1209.73,530.633 1103.93,424.82 1103.93,294.301 L 1103.93,-379.566 C 1103.93,-493.762 1184.95,-589.02 1292.64,-611.098 L 1291.53,-611.953 L 1291.53,296.898 L 1341.56,296.898 L 1341.56,-611.953"
             id="path2465"
             style="fill:none;stroke:#7b7979;stroke-width:10;stroke-linecap:butt;stroke-linejoin:miter;stroke-miterlimit:3.86370993;stroke-dasharray:none;stroke-opacity:1" /><path
             d="M 17.1719,13.4727 L 17.1719,1714.26"
             id="path2467"
             style="fill:none;stroke:#7b7979;stroke-width:20;stroke-linecap:butt;stroke-linejoin:miter;stroke-miterlimit:4;stroke-dasharray:none;stroke-opacity:1" /><path
             d="M 1717.96,13.4727 L 1717.96,1714.26"
             id="path2469"
             style="fill:none;stroke:#7b7979;stroke-width:20;stroke-linecap:butt;stroke-linejoin:miter;stroke-miterlimit:4;stroke-dasharray:none;stroke-opacity:1" /><path
             d="M 11.1719,13.4727 L 1723.95,13.4727"
             id="path2471"
             style="fill:none;stroke:#7b7979;stroke-width:20;stroke-linecap:butt;stroke-linejoin:miter;stroke-miterlimit:4;stroke-dasharray:none;stroke-opacity:1" /><path
             d="M 1717.45,296.938 L 1433.99,13.4727"
             id="path2473"
             style="fill:none;stroke:#7b7979;stroke-width:8;stroke-linecap:butt;stroke-linejoin:miter;stroke-miterlimit:4;stroke-dasharray:none;stroke-opacity:1" /><path
             d="M 16.668,296.938 L 300.129,13.4727"
             id="path2475"
             style="fill:none;stroke:#7b7979;stroke-width:12;stroke-linecap:butt;stroke-linejoin:miter;stroke-miterlimit:4;stroke-dasharray:none;stroke-opacity:1" /><path
             d="M 300.637,1714.26 L 300.637,13.4727"
             id="path2477"
             style="fill:none;stroke:#7b7979;stroke-width:20;stroke-linecap:butt;stroke-linejoin:miter;stroke-miterlimit:4;stroke-dasharray:none;stroke-opacity:1" /><path
             d="M 584.102,1714.26 L 584.102,13.4727"
             id="path2479"
             style="fill:none;stroke:#7b7979;stroke-width:20;stroke-linecap:butt;stroke-linejoin:miter;stroke-miterlimit:4;stroke-dasharray:none;stroke-opacity:1" /><path
             d="M 867.566,1714.26 L 867.566,13.4727"
             id="path2481"
             style="fill:none;stroke:#7b7979;stroke-width:20;stroke-linecap:butt;stroke-linejoin:miter;stroke-miterlimit:4;stroke-dasharray:none;stroke-opacity:1" /><path
             d="M 1151.03,1714.26 L 1151.03,13.4727"
             id="path2483"
             style="fill:none;stroke:#7b7979;stroke-width:20;stroke-linecap:butt;stroke-linejoin:miter;stroke-miterlimit:4;stroke-dasharray:none;stroke-opacity:1" /><path
             d="M 1434.5,1714.26 L 1434.5,13.4727"
             id="path2485"
             style="fill:none;stroke:#7b7979;stroke-width:20;stroke-linecap:butt;stroke-linejoin:miter;stroke-miterlimit:4;stroke-dasharray:none;stroke-opacity:1" /><path
             d="M 1717.96,1430.8 L 300.637,13.4727"
             id="path2487"
             style="fill:none;stroke:#7b7979;stroke-width:20;stroke-linecap:butt;stroke-linejoin:miter;stroke-miterlimit:4;stroke-dasharray:none;stroke-opacity:1" /><path
             d="M 1717.96,1147.33 L 584.102,13.4727"
             id="path2489"
             style="fill:none;stroke:#7b7979;stroke-width:20;stroke-linecap:butt;stroke-linejoin:miter;stroke-miterlimit:4;stroke-dasharray:none;stroke-opacity:1" /><path
             d="M 1717.96,863.867 L 867.566,13.4727"
             id="path2491"
             style="fill:none;stroke:#7b7979;stroke-width:20;stroke-linecap:butt;stroke-linejoin:miter;stroke-miterlimit:4;stroke-dasharray:none;stroke-opacity:1" /><path
             d="M 1717.96,580.402 L 1151.03,13.4727"
             id="path2493"
             style="fill:none;stroke:#7b7979;stroke-width:20;stroke-linecap:butt;stroke-linejoin:miter;stroke-miterlimit:4;stroke-dasharray:none;stroke-opacity:1" /><path
             d="M 17.1719,1714.26 L 1717.96,13.4727"
             id="path2495"
             style="fill:none;stroke:#7b7979;stroke-width:20;stroke-linecap:butt;stroke-linejoin:miter;stroke-miterlimit:4;stroke-dasharray:none;stroke-opacity:1" /><path
             d="M 300.637,1714.26 L 1717.96,296.938"
             id="path2497"
             style="fill:none;stroke:#7b7979;stroke-width:20;stroke-linecap:butt;stroke-linejoin:miter;stroke-miterlimit:4;stroke-dasharray:none;stroke-opacity:1" /><path
             d="M 584.102,1714.26 L 1717.96,580.402"
             id="path2499"
             style="fill:none;stroke:#7b7979;stroke-width:20;stroke-linecap:butt;stroke-linejoin:miter;stroke-miterlimit:4;stroke-dasharray:none;stroke-opacity:1" /><path
             d="M 867.566,1714.26 L 1717.96,863.867"
             id="path2501"
             style="fill:none;stroke:#7b7979;stroke-width:20;stroke-linecap:butt;stroke-linejoin:miter;stroke-miterlimit:4;stroke-dasharray:none;stroke-opacity:1" /><path
             d="M 1151.03,1714.26 L 1717.96,1147.33"
             id="path2503"
             style="fill:none;stroke:#7b7979;stroke-width:20;stroke-linecap:butt;stroke-linejoin:miter;stroke-miterlimit:4;stroke-dasharray:none;stroke-opacity:1" /><path
             d="M 1434.5,1714.26 L 1717.96,1430.8"
             id="path2505"
             style="fill:none;stroke:#7b7979;stroke-width:20;stroke-linecap:butt;stroke-linejoin:miter;stroke-miterlimit:4;stroke-dasharray:none;stroke-opacity:1" /><path
             d="M 17.1719,1430.8 L 1434.5,13.4727"
             id="path2507"
             style="fill:none;stroke:#7b7979;stroke-width:20;stroke-linecap:butt;stroke-linejoin:miter;stroke-miterlimit:4;stroke-dasharray:none;stroke-opacity:1" /><path
             d="M 17.1719,1147.33 L 1151.03,13.4727"
             id="path2509"
             style="fill:none;stroke:#7b7979;stroke-width:20;stroke-linecap:butt;stroke-linejoin:miter;stroke-miterlimit:4;stroke-dasharray:none;stroke-opacity:1" /><path
             d="M 17.1719,863.867 L 867.566,13.4727"
             id="path2511"
             style="fill:none;stroke:#7b7979;stroke-width:20;stroke-linecap:butt;stroke-linejoin:miter;stroke-miterlimit:4;stroke-dasharray:none;stroke-opacity:1" /><path
             d="M 17.1719,580.402 L 584.102,13.4727"
             id="path2513"
             style="fill:none;stroke:#7b7979;stroke-width:20;stroke-linecap:butt;stroke-linejoin:miter;stroke-miterlimit:4;stroke-dasharray:none;stroke-opacity:1" /><path
             d="M 1717.96,296.938 L 17.1719,296.938"
             id="path2515"
             style="fill:none;stroke:#7b7979;stroke-width:20;stroke-linecap:butt;stroke-linejoin:miter;stroke-miterlimit:4;stroke-dasharray:none;stroke-opacity:1" /><path
             d="M 1717.96,580.402 L 17.1719,580.402"
             id="path2517"
             style="fill:none;stroke:#7b7979;stroke-width:20;stroke-linecap:butt;stroke-linejoin:miter;stroke-miterlimit:4;stroke-dasharray:none;stroke-opacity:1" /><path
             d="M 1717.96,863.867 L 17.1719,863.867"
             id="path2519"
             style="fill:none;stroke:#7b7979;stroke-width:20;stroke-linecap:butt;stroke-linejoin:miter;stroke-miterlimit:4;stroke-dasharray:none;stroke-opacity:1" /><path
             d="M 1727.96,1714.26 L 7.1875,1714.26"
             id="path2521"
             style="fill:none;stroke:#7b7979;stroke-width:20;stroke-linecap:butt;stroke-linejoin:miter;stroke-miterlimit:4;stroke-dasharray:none;stroke-opacity:1" /><path
             d="M 1717.96,1147.33 L 17.1719,1147.33"
             id="path2523"
             style="fill:none;stroke:#7b7979;stroke-width:20;stroke-linecap:butt;stroke-linejoin:miter;stroke-miterlimit:4;stroke-dasharray:none;stroke-opacity:1" /><path
             d="M 1717.96,1430.8 L 17.1719,1430.8"
             id="path2525"
             style="fill:none;stroke:#7b7979;stroke-width:20;stroke-linecap:butt;stroke-linejoin:miter;stroke-miterlimit:4;stroke-dasharray:none;stroke-opacity:1" /><path
             d="M 300.637,1714.26 L 17.1719,1430.8"
             id="path2527"
             style="fill:none;stroke:#7b7979;stroke-width:20;stroke-linecap:butt;stroke-linejoin:miter;stroke-miterlimit:4;stroke-dasharray:none;stroke-opacity:1" /><path
             d="M 1717.96,1714.26 L 17.1719,13.4727"
             id="path2529"
             style="fill:none;stroke:#7b7979;stroke-width:20;stroke-linecap:butt;stroke-linejoin:miter;stroke-miterlimit:4;stroke-dasharray:none;stroke-opacity:1" /><path
             d="M 1434.5,1714.26 L 17.1719,296.938"
             id="path2531"
             style="fill:none;stroke:#7b7979;stroke-width:20;stroke-linecap:butt;stroke-linejoin:miter;stroke-miterlimit:4;stroke-dasharray:none;stroke-opacity:1" /><path
             d="M 1151.03,1714.26 L 17.1719,580.402"
             id="path2533"
             style="fill:none;stroke:#7b7979;stroke-width:20;stroke-linecap:butt;stroke-linejoin:miter;stroke-miterlimit:4;stroke-dasharray:none;stroke-opacity:1" /><path
             d="M 867.566,1714.26 L 17.1719,863.867"
             id="path2535"
             style="fill:none;stroke:#7b7979;stroke-width:20;stroke-linecap:butt;stroke-linejoin:miter;stroke-miterlimit:4;stroke-dasharray:none;stroke-opacity:1" /><path
             d="M 584.102,1714.26 L 17.1719,1147.33"
             id="path2537"
             style="fill:none;stroke:#7b7979;stroke-width:20;stroke-linecap:butt;stroke-linejoin:miter;stroke-miterlimit:4;stroke-dasharray:none;stroke-opacity:1" /><path
             d="M 0,0 L 1730,0 L 1730,3.85938 L 0,3.85938 L 0,0 z"
             id="path2539"
             style="fill:#ffffff;fill-opacity:1;fill-rule:nonzero;stroke:none" /><path
             d="M -1,-1 L 1731,-1 L 1731,3.85938 L -1,3.85938 L -1,-1 z"
             id="path2541"
             style="fill:none;stroke:none" /></g></g></g></g></svg>